<?xml version="1.0" standalone="no"?>
<!DOCTYPE svg PUBLIC "-//W3C//DTD SVG 1.1//EN" "http://www.w3.org/Graphics/SVG/1.1/DTD/svg11.dtd">
<svg xmlns="http://www.w3.org/2000/svg">
<metadata>Copyright (C) 2016 by original authors @ fontello.com</metadata>
<defs>
<font id="alegofonts" horiz-adv-x="1000" >
<font-face font-family="alegofonts" font-weight="400" font-stretch="normal" units-per-em="1000" ascent="850" descent="-150" />
<missing-glyph horiz-adv-x="1000" />
<glyph glyph-name="cap" unicode="&#xe800;" d="M518 704c22 5 42 15 65 13 3 1 5-1 5-4-5-6-12-9-19-13-58-32-109-80-140-140-32-59-45-128-40-195-10 0-21-1-32 1-27 5-56 6-84 7 2 27 5 54 11 81 15 61 46 119 92 163 38 41 89 70 142 87z m109 13c14 0 28 0 43 0 18 0 35-5 51-10 21-5 41-13 60-24 12-6 25-9 36-18 8-7 16-14 25-20 32-23 61-51 83-84 19-28 32-59 41-91 4-15 3-31 3-46 0-21 0-41 0-62 0-18-6-35-12-52-16-50-43-95-67-142-12-20-30-39-53-47-10-3-21-6-31-4-10 2-16 11-22 19-10 16-20 31-33 45-16 15-31 31-48 44-10 8-22 15-32 23-4 3-10 8-8 14 4 10 11 19 17 28 52 85 92 178 113 275 2 13 6 25 8 37 2 13 3 26 5 39 1 5 2 10 2 15-5 5-11 8-16 12 0-9-2-17-4-26-4-26-7-52-13-77-22-94-61-183-110-265-7-10-13-19-18-30-11 2-21 5-30 12-40 23-83 41-127 55-21 7-43 11-64 16-7 2-17 5-18 13-1 9-1 18-1 27 1 14 0 28 2 41 2 19 5 37 10 54 8 28 19 54 34 79 14 21 29 40 46 58 28 27 60 49 94 67 8 5 17 7 25 12 4 3 6 8 9 13z m-363-374c12 2 25 2 37 1 17 0 34 0 52-1 61-7 122-20 180-43 32-13 62-30 91-48 25-16 48-36 70-56 20-19 38-41 53-64 4-6 9-12 8-20-6-8-16-13-25-20-44-31-89-63-133-95-8-5-16-13-27-14-11-1-22-1-33 0-13 1-23 9-33 15-17 12-29 28-44 42-51 45-105 87-165 118-27 15-55 28-84 38-17 7-35 8-53 13-21 7-44 5-66 12-15 4-31 9-45 18-4 3-9 6-11 12-1 7 5 14 11 17 11 7 24 10 36 14 33 11 65 22 98 33 22 7 45 14 67 22 6 2 11 5 16 6z" horiz-adv-x="1000" />

<glyph glyph-name="cart" unicode="&#xe801;" d="M102 694c12 0 25 1 37-3 23-8 46-18 65-33 20-15 35-35 47-55 13-26 21-53 25-81 5-24 7-48 12-72 3-21 8-42 10-63 2-14 6-27 7-41 1-10 3-20 5-30 3-15 4-30 7-44 4-16 4-32 9-47 6-15 15-28 29-35 14-7 30-7 45-9 128 0 256 0 383 0 11 0 22 1 32 0 5-2 5-8 6-12 1-10 1-21-2-31-1-6-9-5-14-6-126 0-252 0-377 0-25 1-51-2-76 6-32 9-58 35-69 65-6 15-9 30-10 46-2 15-7 31-8 46-2 17-6 34-8 51-2 16-6 31-8 47-2 16-6 31-8 47-2 17-7 34-8 51-2 18-6 35-10 53-9 26-21 51-41 70-22 20-50 33-80 34 0 15 0 31 0 46z m252-101c11 1 22 0 33 0 24 1 47-7 71-8 23 0 46-7 69-7 23-1 46-8 70-8 24-1 48-7 73-8 25 0 49-6 74-7 28-1 55-3 82-6 13-1 26 1 38-4 8-4 17-9 23-17 4-5 3-12 4-18-1-14 1-29-3-44-5-14-7-30-11-45-7-34-15-67-21-101-4-15-6-29-14-43-7-17-19-33-34-45-13-9-28-16-44-16-110 0-219 0-329 0-13 0-25 5-37 10-22 9-37 30-45 51-6 24-9 48-13 72-5 18-5 37-10 56-3 14-3 28-6 42-3 10-4 20-5 30-2 16-7 30-8 46 0 15 0 31 7 45 6 15 21 23 36 25z m58-493c13 3 28 3 40-5 12-8 22-20 25-34 3-14-2-28-10-39-5-6-10-13-18-15-9-1-19-1-29-1-8 0-17-1-23 5-12 9-20 25-21 40 0 22 16 41 36 49z m300-2c11 3 23 1 33-4 22-10 31-38 22-59-3-10-11-18-19-25-6-5-15-4-23-4-9 0-19-1-27 5-9 6-17 14-21 25-4 12-3 26 3 38 6 12 18 21 32 24z" horiz-adv-x="1000" />

<glyph glyph-name="deliver-laundry" unicode="&#xe802;" d="M163 828c8 7 22 8 30 1 17-14 32-27 49-41 0 13-1 26 0 39 0 3 2 6 6 6 13 0 26 0 39 0 4 0 5-5 5-8 0-26 0-53 0-79 14-11 27-22 41-34 3-2 7-6 4-9-4-7-9-12-15-17-3-3-7 0-9 2-45 37-90 75-134 112-45-37-90-75-134-112-3-2-8-5-11-2-5 6-10 11-14 18-2 3 2 6 4 9 47 38 93 77 139 115z m618-2c6 8 18 8 28 7 10 0 20-9 21-20 1-6 1-11 1-17 18 0 37 0 56 0 0 10-2 22 6 30 7 8 19 8 29 7 10 0 19-8 21-18 0-6 0-13 0-19 9-1 18 1 26-2 7-3 12-11 11-18 0-62 1-124 0-186 1-10-9-19-19-19-68 0-135 0-203 0-9-1-18 5-20 14-2 6-1 13-1 19 0 57 0 115 0 172-1 9 6 18 15 19 7 1 15 1 22 1 1 10-1 22 7 30m15-12c-1 0-2-1-2-1-2-15-1-29-1-43-1-10 12-7 18-6 2 7 1 14 1 22-1 9 1 18-1 27-5 2-10 2-15 1m113 0c-1 0-2-1-3-1-1-13 0-26 0-39 0-4-1-11 4-11 5 0 14-2 14 5 0 15 1 30 0 45-4 3-11 2-15 1m-153-74c0-14 0-28 0-43 14 0 28 0 42 0 0 15 0 29 0 43-14 0-28 0-42 0m51 0c0-14 0-28 0-43 16 0 31 0 47 0 0 15 0 29 0 43-16 0-31 0-47 0m56 0c0-14 0-29 0-43 16 0 32 0 47 0 0 15 0 29 0 43-15 0-31 0-47 0m57 0c0-14 0-28 0-43 14 0 28 0 42 0 0 14 0 29 0 43-14 0-28 0-42 0m-164-52c0-16 0-31 0-47 14 0 28 0 42 0 0 16 0 31 0 47-14 0-28 0-42 0m51 0c0-16 0-31 0-47 16 0 31 0 47 0 0 16 0 31 0 47-16 0-31 0-47 0m56 0c0-16 0-31 0-47 16 0 32 0 47 0 0 16 0 31 0 47-15 0-31 0-47 0m57 0c0-16 0-31 0-47 14 0 28 0 42 0 0 16 0 31 0 47-14 0-28 0-42 0m-164-56c0-14 0-28 0-42 14 0 28 0 42 0 0 14 0 28 0 42-14 0-28 0-42 0m51 0c0-14 0-28 0-42 16 0 31 0 47 0 0 14 0 28 0 42-16 0-31 0-47 0m56 0c0-14 0-28 0-42 16 0 32 0 47 0 0 14 0 28 0 42-15 0-31 0-47 0m57 0c0-14 0-28 0-42 14 0 28 0 42 0 0 14 0 28 0 42-14 0-28 0-42 0z m-855 57c38 31 76 62 114 94 36-30 72-61 109-90 2-2 5-4 4-7 1-30 0-60 0-90 1-5-1-10-5-13-3-3-8-2-12-3-23 1-47 0-71 1 0 25 0 50 0 75-17 0-34 0-51 0 0-25 0-50 0-75-25 0-50-1-75 0-7-1-14 6-13 13 0 32 0 63 0 95z m566-197c26 3 53 5 79 8-2-5-4-11-10-14-21-14-42-30-63-45-7-5-16-4-24-4-26-1-52-6-79-4-3 14-5 28-7 42-1 5 3 9 8 9 18 1 37 3 55 4 14 1 27 4 41 4z m87-7c6 5 13 10 20 11 10-6 16-16 23-24 3-4 9-9 5-15-8-12-19-22-29-34-23-27-46-54-68-82-11-14-24-27-35-42-12 6-23 14-32 24-8 8-19 12-26 21-6 8-14 12-23 17 1 3 2 6 3 9 20 11 38 26 57 39 35 26 71 50 105 76z m54-42c7 9 18 11 29 11 21 1 43 4 64 3 8 0 16-2 23-6 6-4 8-12 6-19-2-9-8-16-14-23-11-13-23-25-34-38-20-24-43-47-63-72-9-11-20-21-30-32-30-35-59-70-90-104-17-17-31-37-48-55-14-15-29-31-42-48-5-7-10-15-18-19-7-4-15-7-24-8-17-1-35 0-52 1-13 1-26-2-39 0-35 0-70 0-104 1-10-1-17 9-19 18-1 6 3 12 6 17 13 21 32 36 49 52 14 13 26 25 40 37 15 13 29 29 44 42 15 13 29 28 44 42 23 22 46 43 69 66 4 4 9 7 15 9 8-6 16-12 24-18 8-5 12-13 20-18 5-3 11 0 14 4 30 34 57 70 86 104 15 17 30 35 44 53z m-279-10c5 8 11 17 19 23 2-4 5-8 6-12 2-18 4-37 7-55 1-7 3-15 1-22-10-5-21-8-32-13-26-9-49-25-77-29 2 7 5 14 10 20 22 29 44 59 66 88z m-57-6c11 2 22 2 33 1-6-14-18-24-26-37-11-16-25-31-35-48-9-14-22-25-30-41 4-1 9-2 13-1 17 4 33 13 50 19 0-3 0-6 0-9-22-19-44-39-66-59-32-28-63-56-95-84-19-17-38-35-57-52-18-15-36-31-46-52-4-8-2-16-3-25-13-6-28-3-41-3-35 0-70 0-106 1-9 0-18 3-27 6l0 42c7 9 17 15 26 22 15 13 32 24 47 37 23 18 46 38 70 56 29 22 56 46 86 68 17 12 33 26 50 39 42 34 84 67 126 101 10 7 19 17 31 19z m468-34c8 8 20 5 30 2 8-3 17-10 16-20 0-14-11-24-20-33-15-17-28-35-43-53-25-29-48-59-72-88-10-12-20-24-29-37-25-30-51-60-75-91-20-24-41-47-60-71-12-15-23-30-34-44-4-5-9-9-14-11-16-8-34-3-50-3-40 0-80 0-119 0-40-2-80-1-119 0-39 1-77 0-116 1-14 2-28-1-43 0-28-1-57 1-86 0-13-1-26 2-38 9-8 4-12 15-9 23 4 10 8 20 16 27 4 3 9 1 14 1 13-1 27 0 41 0 12-1 25 1 37 0 14-2 29-1 43-1 40 0 80-1 120-1 37-4 74-1 111-1 41-1 83-1 124-1 9 0 18-1 26 3 11 6 25 9 33 19 46 57 95 112 142 168 24 26 46 55 70 82 25 30 53 59 78 89 9 10 17 22 26 31z m-400-45c9 3 17 6 25 8 4 1 8 2 12-1 10-6 20-13 27-23-5-13-18-21-28-30-34-33-69-65-103-98-15-14-30-28-45-43-18-18-39-34-57-52-14-13-28-27-36-44-3-8 1-17 3-25-3-3-6-7-11-6-22 1-44 1-66 1-9 0-18 1-26 4-6 6-8 15-4 22 11 21 30 35 47 51 37 35 75 69 113 103 26 23 51 47 77 70 16 14 30 29 46 42 9 7 16 17 26 21z m462-13c12 3 24-2 34-7l0-37c-31-45-65-87-97-130-11-15-23-28-34-42-10-12-17-26-27-38-28-34-53-70-80-105-20-24-37-50-56-74-6-8-11-17-17-24-8-11-16-23-30-28l-578 0c-8 3-17 8-22 16-3 7 0 15 3 22 3 8 8 18 16 22 8 2 16 0 24 0 39 0 78-1 117-1 17 2 35 0 53 0 21 1 41-1 62 0 28 1 56 0 84 1 25 0 51-1 76-1 15 1 30 1 45 0 11-2 22 1 33 0 17-2 35-1 50 6 10 5 18 11 24 19 14 19 27 38 43 56 8 10 15 22 24 32 13 14 24 29 36 44 14 18 30 34 43 52 10 14 22 26 31 40 21 28 44 55 66 83 21 27 44 54 64 82 4 4 7 10 13 12z m-634-333c13-1 26 1 39 1 11-1 23 1 34-1-37 0-74-3-111 1 13 0 25-1 38-1z" horiz-adv-x="1000" />

<glyph glyph-name="female" unicode="&#xe803;" d="M478 817c6 3 13 2 20 2 8 0 17 1 25-1 30-15 48-48 47-81 1-25-7-51-26-68-11-12-27-19-44-19-14 1-28 5-38 15-12 12-23 26-27 43-2 10-4 20-4 30 2 19 6 38 18 54 7 10 18 19 29 25z m-80-205c17 8 35 15 53 14 31 0 61 0 92 0 17 1 35-2 51-8 23-9 44-24 56-46 9-16 9-35 14-53 15-55 30-111 45-166 4-12 5-25 3-38-1-6-5-11-9-15-11-12-32-10-41 4-7 11-8 25-11 37-16 56-32 111-48 167-2 4-3 8-6 11-3 2-7 1-10 1 0-8 1-16 3-24 25-93 50-186 75-279 2-8 5-16 4-24-28 0-57 0-86 0 0-86 0-171 0-257 0-12 1-25-3-37-3-8-9-14-15-20-3-2-6-5-10-5-9-1-19-1-28 0-3 0-5 3-8 5-7 8-13 17-15 27-2 11-1 21-1 32 0 59 0 118 0 178 0 25 1 51 0 76-4 0-8 0-11 0-1-39 0-78-1-117 0-50 0-101 0-151 0-11-1-22-7-31-3-6-7-12-12-17-3-3-7-2-11-3-9 0-18 0-27 1-5 0-8 4-11 7-5 7-11 14-13 23-2 11-1 21-1 32 0 85 0 170 0 255-29 1-57 0-86 0-1 11 2 22 6 32 23 87 46 173 69 260 3 11 7 21 7 33-3-1-7-1-9-4-3-4-4-10-6-15-8-28-16-55-23-82-5-15-10-31-13-46-3-12-8-24-11-37-2-8-3-17-6-25-5-13-21-22-35-18-8 4-15 10-19 17-3 12-2 24-1 36 17 59 32 118 48 177 8 39 33 75 68 93z" horiz-adv-x="1000" />

<glyph glyph-name="folded-shirts" unicode="&#xe804;" d="M675 496c12 1 24 3 35 4-2-6-4-11-10-14-19-13-38-27-57-41-5-3-10-7-16-8-11 0-22 0-33-1-20-1-40-5-60-3-3 14-5 28-7 42 0 5 3 9 8 9 17 1 34 3 51 4 12 0 25 3 37 4 18 0 35 3 52 4z m42-11c6 4 12 9 19 11 4 0 7-3 10-6 6-6 12-13 18-21 2-3 5-8 2-12-8-12-19-22-29-34-20-23-40-47-59-71-14-18-30-35-43-53-13 6-24 14-33 24-8 8-19 12-26 21-6 8-15 12-23 18 2 3 3 8 7 10 19 11 35 25 53 37 34 26 70 49 104 76z m55-42c8 11 23 11 35 12 19 0 39 3 58 2 8 0 16-2 23-6 5-4 8-11 7-17-2-12-12-21-19-30-22-24-43-49-65-72-10-11-19-22-29-34-13-16-29-29-41-46-30-33-58-68-89-101-10-11-19-23-29-34-20-22-40-44-58-68-8-9-20-14-32-16-19-1-38 0-56 1-13 1-25-2-38 0-34 0-69 0-103 1-10-1-17 9-19 18-1 6 3 12 6 17 12 20 32 35 48 51 14 13 27 26 41 38 12 10 23 22 35 33 12 12 25 23 37 36 28 27 57 54 86 82 4 4 9 6 14 8 8-6 17-13 25-19 8-5 13-15 22-18 8-1 13 7 18 12 17 20 34 41 50 62 24 30 49 58 73 88z m-279-10c6 8 11 17 19 23 2-4 5-7 6-12 2-14 3-27 5-41 2-12 4-24 4-36-13-6-27-10-41-16-22-9-44-23-69-26 2 7 5 14 10 20 22 29 44 59 66 88z m-71-12c13 10 31 6 46 8-4-15-17-25-25-38-12-16-25-32-36-49-9-14-21-25-28-39 3-2 7-4 12-2 17 4 33 13 50 19 0-3 0-6 0-9-26-22-52-47-78-70-46-42-94-82-139-124-18-16-37-31-47-53-4-8-2-17-2-25-11-3-22-5-32-3-39 1-78 0-118 1-8 0-17 3-25 6l0 42c9 11 22 18 32 28 25 18 49 37 73 56 23 20 49 38 73 58 21 18 43 35 65 52 34 27 69 54 102 81 26 20 51 42 77 61z m489-24c11 3 24-1 33-7 9-8 7-22 1-31-10-14-22-25-33-38-18-24-39-47-58-71-14-18-28-36-43-53-13-15-24-32-37-47-24-29-47-58-71-87-28-30-53-63-79-95-5-7-10-16-19-20-8-5-18-6-27-5-34 2-69 1-103 1-32 1-63-1-94-1-34 0-68 2-102 2-20 0-41-1-62 0-14-1-27 2-41 0-7 0-15 1-22 1-27-2-54 0-82-1-14-1-28 2-40 9-8 4-12 15-9 23 4 10 9 21 18 28 7 2 16 0 24 0 17 0 35-1 52 0 12 1 24-2 35-1 39 0 79-1 118-1 30 1 60-3 90-1 15 0 29 1 44 0 42-1 84-1 125-1 9 0 18-1 26 3 11 6 25 9 33 19 46 57 94 111 141 167 26 28 49 58 74 87 29 34 60 66 88 100 6 7 11 17 20 20z m-384-42c4 2 9 4 14 0 10-6 20-13 27-23-2-9-11-15-17-21-17-15-33-31-50-46-20-20-41-39-61-58-20-19-41-38-60-57-15-14-31-27-46-42-14-13-27-26-35-43-3-8 1-17 3-24-3-3-5-7-9-7-13 0-26 1-39 1-16 1-33-1-49 2-10 2-15 15-11 23 7 12 16 22 25 32 38 34 75 68 113 102 25 22 50 45 75 68 25 21 48 45 73 67 7 6 13 13 22 17 8 4 16 6 25 9z m439-20c12 3 24-1 34-7l0-37c-21-30-43-59-66-88-19-25-36-50-57-74-12-13-21-29-32-44-25-31-49-64-73-96-10-14-21-26-30-39-11-14-21-30-33-44-10-11-16-25-27-37-6-8-13-16-23-19l-578 0c-8 3-17 8-22 16-3 7 0 14 2 20 4 9 8 20 17 25 6 1 12-1 18-1 28-1 56 0 84-1 26 0 52 1 78 0 20 1 40 1 61 0 26 1 51 1 77 0 31 1 62 1 92 0 17 0 33 1 49 0 13-2 25 1 37 0 18-2 37-1 53 9 16 8 24 24 34 37 14 20 32 38 46 59 14 16 27 33 40 50 15 19 33 37 47 57 9 12 20 23 29 36 20 29 44 55 66 84 21 27 44 54 64 82 4 4 7 10 13 12z" horiz-adv-x="1000" />

<glyph glyph-name="fresherner" unicode="&#xe805;" d="M310 829c18 1 35 0 53 1 63 0 127-1 190 0 13 0 26 0 39-3 45-12 80-56 79-103-36 0-72 1-107 0-1-36 0-72-1-108 0-5 0-10 1-15 4-3 9-5 14-6 25-8 44-27 54-51 5-12 6-25 6-38-1-39 0-78-1-117 1-5 0-10 4-13 5-5 12-9 18-13 72-46 120-126 131-210 0-10 0-20 0-30 0-52 0-104 0-156-2-31-18-59-39-81-20-19-45-33-72-36l-356 0c-47 7-89 43-104 88-5 14-7 28-7 43 0 50 0 100 0 150 2 93 54 181 131 232 7 4 15 8 21 14 1 4 1 8 1 12-1 41 0 81-1 121 0 32 19 63 46 79 9 5 19 6 28 11 3 2 1 7 0 10-5 17-12 34-23 49-11-12-21-24-35-33-20-14-45-21-69-23-5 0-10 0-15 2-3 7-4 20 5 22 8 4 16 5 24 10 21 11 37 31 44 53 1 4 3 9-2 12-13 9-29 14-45 17-4 2-9 2-12 6 0 4 0 8 0 12 0 31 0 61 0 92m115-317c0-51 0-103 0-154 1-15-13-25-25-31-42-20-77-54-99-94-20-34-29-73-30-111 14 4 25 14 39 17 15 3 30 6 44 4 24-3 47-11 70-17 20-6 41-12 63-12-2 40 0 81-1 121 1 101 0 202 0 304-13 0-26 1-39 0-13-1-23-14-22-27m93 27c-1-116-1-232-1-347 0-26 1-52 0-78 11 0 22 0 32 2 21 4 42 8 62 14 28 8 57 15 87 9 11-1 22-7 33-7-3 77-48 151-116 189-11 5-23 10-31 19-4 5-5 12-5 18 0 51 0 101 0 152 0 13-9 28-22 29-13 1-26 0-39 0z m-308 289c25 0 51 0 76 0 1-35 0-69 0-104-15-3-30-1-46-2-10 0-20 0-30 2 0 34 0 69 0 104z" horiz-adv-x="1000" />

<glyph glyph-name="gift" unicode="&#xe806;" d="M371 752c4 6 12 4 18 4 9 0 19 2 27-4 11-7 22-13 30-22 16-16 30-33 40-53 4-8 7-17 11-25 2 0 4 0 6 0 7 17 14 35 26 50 12 15 25 31 42 42 6 4 11 8 18 11 5 2 11 1 17 1 8 0 16 1 24-1 11-11 15-28 15-43-1-12-2-24-5-36-10-33-29-64-52-89-8-10-19-16-29-24 5-2 10-3 15-3 69 0 138 0 207 0 1-26 0-51 0-77 0-20 1-41 0-61-14-1-29 0-43 0-60 0-121 0-181-1-6 1-12 0-17 5-4 5-4 13-4 20 1 25 0 51 0 76 0 8 2 16 2 25 0 2-3 3-5 3-6 1-12 0-17 1-6 2-11 5-16 8-7-4-15-9-23-8-5-1-11 1-15-3-1-9 2-17 2-26 0-25 0-51 0-76 0-7 0-15-4-20-5-5-11-4-17-5-56 1-113 1-170 1-18 0-36-1-54 0-1 18 0 37 0 55 0 27-1 54 0 81 16 1 32 0 49 0 59 0 118 0 178 0-5 10-15 14-22 21-31 28-53 66-64 106-2 15-5 31-1 46 2 8 6 15 12 21m21-29c-1-9-1-18 2-27 5-19 13-38 24-55 12-18 25-37 44-47 4-2 9-3 13-3 2 11-1 23-5 34-8 28-24 53-44 75-9 10-20 20-34 23m181-26c-14-16-25-34-33-53-5-11-8-23-13-34-2-5-2-11-2-16 5-1 10-1 14 2 27 20 46 48 59 79 3 14 10 29 8 44-13-2-23-13-33-22z m-354-325c5 0 9 0 13 0 71 0 141 0 211 0 6 0 11 0 16-3 4-4 4-11 5-17 0-122 0-245 0-367 0-14 0-27-1-41-21-1-42 0-63 0-60 0-121 0-181 0 0 91 0 182 0 273 0 52-1 103 0 155z m320-6c3 6 11 6 18 6 60 0 121 0 181 0 14 0 29 1 43 0 1-39 0-77 0-116 0-104 0-208 0-312-57 0-114 0-172 0-24 0-48-1-72 0-1 14 0 27-1 41 0 117 1 234 0 351 1 10-1 21 3 30z" horiz-adv-x="1000" />

<glyph glyph-name="hanger" unicode="&#xe807;" d="M484 567c9 3 18 1 28 2 10-1 21 2 29-4 12-7 22-18 28-30 7-17 8-37 1-54-4-8-10-15-16-21-8-9-21-14-32-18-9-3-5-15-2-21 8-7 19-11 28-17 22-14 44-26 65-39 17-9 32-20 49-29 14-8 27-18 41-25 22-14 44-26 65-39 14-8 28-17 41-25 14-7 26-16 39-24 14-7 26-15 39-23 15-7 28-17 42-25 3-2 8-4 8-9 1-9 1-19 0-29 0-9-9-15-17-14-280 1-560 1-840 0-7 0-15 4-17 11-1 9-1 18 0 27-1 4 4 7 7 10 19 13 38 24 58 36 16 8 31 19 47 27 31 19 63 38 94 56 14 10 29 17 43 26 21 12 42 24 62 37 32 18 63 37 94 55 6 4 15 7 18 14 3 14-1 29 2 43 1 3 3 7 7 8 9 2 19 0 28 5 12 7 22 22 18 36-3 15-18 25-33 26-13-1-26-8-30-21-3-4-3-10-8-13-8-2-19 0-25 7-3 9 3 19 8 27 6 12 18 21 31 27m15-177c-5-2-9-5-14-8-8-5-17-10-26-15-23-15-48-28-72-43-21-13-44-25-65-39-56-32-111-66-167-98-11-7-21-14-33-20-5-2-10-5-15-8-1-2-4-4-2-7 10-1 20 0 30 0 251 0 502 0 754 0 2 0 4 0 6 0 2 3-1 6-3 7-10 7-20 11-30 18-16 8-31 19-47 27-48 30-98 59-147 89-17 9-32 20-49 29-14 9-27 17-41 25-20 13-42 24-61 37-5 3-12 8-18 6z" horiz-adv-x="1000" />

<glyph glyph-name="hanger-alt" unicode="&#xe808;" d="M454 566c5 4 9 10 16 10 20 1 39 1 58 0 8 1 13-6 20-10 15-11 26-27 31-44 4-21 4-44-8-61-8-14-20-25-35-32-10-4-21-5-31-10-3-11-1-23-1-34 0-10-2-21 1-32 16-3 32-1 48-3 18-1 36-6 55-7 12-1 24-6 36-7 8-1 16-4 23-6 25-5 49-13 73-22 16-8 33-13 50-22 9-4 19-7 27-13 11-7 23-11 33-18 8-5 17-9 24-15 2-4 1-9 1-13 0-37 1-74 0-111-83-1-165 0-248 0-159 0-318 0-477 0-8 0-16-1-25 0 0 31 0 62 0 93 0 11-1 21 1 31 0 4 4 5 7 7 52 33 108 58 167 76 12 5 24 6 36 11 11 3 22 3 32 7 15 5 31 3 46 7 18 6 38 2 57 4 5 0 4 6 5 10 0 26-1 52 0 78-1 5 3 9 9 9 18-1 38 2 51 15 8 7 12 17 15 27 7 30-20 62-51 61-16 1-31-9-41-20-8-10-10-22-13-34-8-2-17-1-25 0-1 8-1 17 0 25 7 17 17 34 33 43m-57-249c-14-1-26-6-40-7-9-1-18-6-27-8-10-2-19-6-29-8-12-4-24-8-35-14-12-5-25-8-36-15-13-8-28-12-41-20-9-6-20-11-30-17-5-2-10-7-9-13-1-19 0-37 0-56 0-6-1-12 1-17 9-3 18-2 27-2 215 0 429 0 644 0 9 0 18-1 27 2 2 4 2 10 2 15-1 18-1 36 0 54 0 5-1 11-5 14-9 7-20 12-30 18-13 6-27 14-41 19-42 22-88 36-134 47-15 1-29 7-43 8-24 1-47 8-71 8-19 0-39 0-58 0-25 0-48-7-72-8z" horiz-adv-x="1000" />

<glyph glyph-name="hat-becak" unicode="&#xe809;" d="M390 568c28 22 64 36 100 38 50 2 100-18 134-54 33-33 52-81 50-128 0-34 1-67 0-101-111-1-223 0-334 0-6 0-11-1-17 0-2 7-1 14-1 21 0 26 0 52 0 78-2 56 24 112 68 146z m-81-282c1 0 4 0 5 0 123 0 245 0 368 0 5 1 8-3 10-7 28-52 58-102 89-152-61-12-124-19-187-23-11 0-21-1-31-2-40-1-80-1-120 0-75 3-151 11-225 24-1 1-1 3-1 3 6 13 15 24 22 36 23 37 44 75 65 113 2 3 3 5 5 8z" horiz-adv-x="1000" />

<glyph glyph-name="hat-female" unicode="&#xe80a;" d="M488 559c20 5 41-4 61-6 48-10 90-39 118-79 14-19 22-42 27-66 1-11 1-23 3-34 0-4 6-5 9-6 45-7 90-18 132-34 29-12 57-26 78-48 11-11 18-26 19-41-1-20-12-37-27-49-22-20-50-33-78-44-42-15-85-25-129-33-22-5-44-6-66-9-22-3-45-3-67-5-15 1-31-2-46-4-28-1-57 0-85 0-13 2-27 6-40 6-22 1-43 4-64 7-15 1-30 4-45 7-50 9-100 22-147 43-28 14-56 31-71 59-6 10-10 22-5 33 11 31 40 51 68 65 43 21 90 34 136 43 11 3 23 3 33 8 3 13 3 26 5 40 5 25 16 50 31 70 22 27 49 48 81 60 11 4 22 9 33 11 12 1 24 4 36 6m-166-252c6-21 24-37 43-47 25-13 53-19 80-20 15 0 29-3 43-4 23-2 45 4 67 4 26 1 51 7 74 17 18 8 34 21 44 38 1 4 1 8 3 12-11-9-20-22-34-29-17-11-38-15-58-19-9-2-18-4-27-4-37 0-73 0-110 0-15 0-30 4-45 7-20 4-39 11-55 23-8 8-16 16-25 22z" horiz-adv-x="1000" />

<glyph glyph-name="hat-male" unicode="&#xe80b;" d="M324 584c8 3 16 4 24 5 102 0 204 0 306 0 6-3 13-2 18-5 29-8 52-29 65-56 8-19 10-40 10-61 0-51-1-102 0-153 6 0 11-1 17-3 26-8 51-16 76-27 2-1 4-2 6-2 3-2 6-3 9-5 26-12 52-26 73-46 6-5 11-11 14-18 1-6 0-12 0-18-7-21-27-35-46-45-33-17-68-28-104-36-19 23-48 33-74 43-29 8-58 15-88 19-14 2-29 5-44 5-12 3-25 1-37 3-57 2-114 0-170-9-35-6-71-14-104-28-17-7-34-16-47-30-2-1-2-4-3-6-4-1-9-1-12 1-20 4-39 9-58 16-29 8-58 20-81 39-8 6-14 14-18 23-4 11-3 24 3 35 15 22 39 36 61 50 8 5 16 8 24 13 26 12 53 24 81 32 4 2 8 3 12 4 4 2 9 3 14 4 0 56 0 111 0 167 0 8 3 15 4 23 2 4 4 8 5 12 13 26 36 47 64 54z" horiz-adv-x="1000" />

<glyph glyph-name="iron" unicode="&#xe80c;" d="M822 398c13 1 25 3 38 2 8-10 11-23 17-34 8-18 13-36 22-53 11-26 21-53 31-79 11-25 20-49 30-74 13-34 26-68 40-101l0-34c-14-14-33-24-48-38-15-14-32-27-49-40-12-10-27-18-36-32-2-3-5-7-9-7-278 0-556 0-834 0 1 4 1 8 3 11 22 38 47 75 75 108 9 12 20 22 28 34 27 37 60 69 95 98 18 18 37 35 57 52 30 25 63 46 96 66 75 44 156 76 241 97 22 6 45 11 69 13 16 3 32 4 48 5 13 2 25 3 37 4 17-1 33 3 49 2m-65-87c-9-2-18-2-26-4-16-4-31-10-46-15-25-9-46-22-69-35-9-5-17-12-27-18-9-5-16-12-24-18-7-6-16-12-21-20-5-7-10-14-13-22-1-6 1-12 2-19 3-16 18-26 27-39 11-14 25-25 37-37 7-6 14-11 22-16 8-4 16-6 25-10 8-3 14-10 22-15 8-4 17-6 26-10 12-4 25-9 38-12 12-1 25 1 38 0 13-1 27-4 41-4 12-1 22 8 27 18 13 20 14 43 20 65 2 8 2 17 3 26 4 20 3 40 3 60-2 11-5 22-6 34-3 18-8 36-13 53-6 13-15 25-28 33-17 9-39 9-58 5z m-160-169c5 2 10 0 14-3 32-17 62-35 93-52 11-6 22-13 33-20 5-8 0-17 0-25-1-4-3-9-8-8-12 0-23 6-34 11-19 10-39 19-59 29-21 13-43 26-61 45-2 2-5 5-3 8 7 7 16 11 25 15z m-581-254c280 0 560 0 841 0 2-13 1-25 1-38l-858 0 0 2c3 13 10 24 16 36z" horiz-adv-x="1000" />

<glyph glyph-name="kg" unicode="&#xe80d;" d="M444 791c16 7 34 4 50 4 16 0 34 3 49-3 19-8 38-19 53-34 8-8 15-18 22-27 15-18 19-42 22-64 0-3 1-7 5-8 5-1 11-1 17-1 47 0 95 0 142 0 6-18 9-36 10-54 1-14 7-27 7-41 1-17 7-32 8-49 1-18 7-36 8-54 1-17 8-33 8-49 1-11 4-21 6-32 1-9 1-18 3-27 2-13 6-26 7-39 0-17 7-34 8-51 0-15 6-30 7-45 0-16 7-32 8-49 0-12 4-24 6-36 2-11 2-21 4-32 2-11 5-23 6-35 1-15 6-30 7-45 1-17 7-34 8-51 0-13 6-24 7-37 0-9 0-18 0-27-284 0-568 0-852 0 0 15-1 31 4 46 3 9 3 19 4 28 1 15 6 30 7 45 1 14 6 27 7 41 0 11 2 23 5 34 4 12 3 26 6 38 2 12 4 23 5 34 1 16 7 31 8 46 0 17 7 33 7 49 1 11 4 22 6 33 3 12 2 25 5 38 4 13 5 27 6 40 1 9 5 18 6 28 1 11 1 22 4 33 6 19 4 39 10 58 3 14 2 28 6 41 3 11 4 23 5 34 1 11 6 21 6 33 1 14 4 29 7 43 1 4 2 9 6 11 4 2 9 2 13 2 45-1 90 0 135-1 4 0 8 1 12 1 2 5 3 9 3 14 3 30 18 58 38 80 15 16 34 28 53 37m-16-78c-8-9-13-20-17-31-3-7-4-15-3-23 59 0 117 1 176 0 3 15-4 29-11 41-15 27-46 44-77 44-26 0-51-11-68-31m-147-222c0-119 0-237 0-356 22 0 45 0 67 0 0 23 0 46 0 69 0 12 9 20 16 29 7-11 12-23 18-34 11-21 21-43 32-64 28 0 56 0 84 0-28 49-58 97-86 146 24 34 51 66 75 100-27 1-55 1-82 0-17-30-34-60-52-89-1 0-4 0-5-1-1 67 0 133 0 200-22 0-45 0-67 0m248-135c-24-29-33-67-32-104 1-18 3-37 10-55 9-20 21-39 41-49 20-12 47-15 69-5 10 5 18 13 26 20 4-21-1-45-17-60-10-9-23-12-36-12-22 1-43 8-62 19-4-20-10-40-13-60 19-11 40-17 61-18 24-1 48-1 70 8 24 8 43 27 53 50 8 23 13 47 12 71 0 53 0 106 0 160 0 6 0 11 1 17 2 14 1 29 1 43-19 0-39 0-58 0-1-7-2-15-4-22-9 8-17 19-29 23-33 13-71 0-93-26z m69-31c12 4 26 1 34-9 11-14 13-33 13-50 0-21 1-44-14-61-10-12-28-13-41-5-13 9-20 25-23 40-2 20-2 41 6 60 5 11 13 22 25 25z" horiz-adv-x="1000" />

<glyph glyph-name="laundry-basket" unicode="&#xe80e;" d="M26 288c-1 10 9 19 19 19 304 0 608 0 912 0 7 0 15-3 18-9 4-5 3-11 3-16 0-11 1-21 0-31-1-9-10-16-19-16-11-1-22 0-33-1-25-113-48-227-72-341-2-13-15-21-28-21-212 0-424 0-637 0-13-1-27 7-29 21-24 114-48 228-72 341-15 1-29 0-43 1-10 0-19 8-19 18 0 11 0 23 0 35m213-74c-5-3-5-9-5-14 0-73 0-145 0-217 0-5 1-10 5-13 8-5 23 0 22 11 0 75 0 150 0 225-1 10-15 10-22 8m185 0c-4-1-8-5-7-10 1-75 0-150 0-225 0-7 7-11 13-11 5 0 14 2 15 9 0 72 0 143-1 215 0 5 1 11 0 17-3 7-13 6-20 5m176 0c-4-2-6-7-5-12 1-74-1-149 0-223 0-15 27-14 27 0 0 75 0 150 0 225 1 11-14 12-22 10m170-1c-5-2-5-8-5-13 0-74-1-148 0-221 0-14 26-15 26 0 1 73 0 146 1 219-1 3 0 7-2 10-4 6-13 8-20 5z" horiz-adv-x="1000" />

<glyph glyph-name="laundry-basket-1" unicode="&#xe80f;" d="M108 421c3 1 6 2 9 2 248 0 496 0 744 0 10-1 20 1 29-4 5-3 8-10 8-16 0-12 0-24 0-35 0-10-10-18-19-17-254-1-508 0-762-1-7 0-14 3-18 9-3 5-3 11-3 17 0 9 0 19 0 29 0 7 6 14 12 16z m-82-133c-1 10 9 19 19 19 301 0 603 0 904 0 6 0 13 1 19-3 6-2 10-8 10-15 0-12 0-24 0-37 0-9-9-17-19-17-11-1-22 0-33-1-25-113-48-227-72-341-2-13-15-21-28-21-213 0-426 0-639 0-12 0-25 8-28 21-23 114-47 228-71 341-15 1-29 0-43 1-10 0-19 8-19 17 0 12 0 24 0 36m213-74c-4-2-5-8-5-12 0-73 0-145 0-217 0-5 0-11 4-14 8-7 24-2 23 10 0 71 0 142 0 213 0 5 0 10-1 15-3 7-14 6-21 5m185 0c-4-1-8-6-7-10 1-75 0-150 0-225 0-16 31-14 28 2-1 70 0 141-1 211 0 5 1 11 0 16-3 8-13 7-20 6m177 0c-5-2-7-6-6-10 0-75-1-150 0-225 0-15 27-14 27 0 0 72 0 143 0 215 0 5 0 10 0 15-6 6-14 7-21 5m169-1c-4-2-5-7-5-11 0-75 0-149 0-223 0-14 26-15 26 0 1 74 1 148 1 223 0 10-14 15-22 11z" horiz-adv-x="1000" />

<glyph glyph-name="laundry-basket-2" unicode="&#xe810;" d="M128 540c7 3 15 2 22 2 235 0 471 0 706 0 10 0 20-7 20-18 1-13 1-25 0-37 0-11-10-18-20-17-241 0-481 0-721 0-10-1-19 7-19 17-1 12 0 23 0 35-1 8 4 16 12 18z m-20-119c8 3 15 2 23 2 249 0 497 0 746 0 9 0 18-5 20-14 2-14 1-30 0-44-1-9-10-15-18-14-254-1-508 0-762-1-10 0-20 7-21 18 0 11 0 23 0 35 0 8 5 16 12 18z m-82-132c0 11 11 19 21 18 304 0 608 0 912 0 9 0 19-8 19-18 0-12 0-24 0-37 0-9-9-17-19-17-11-1-22 0-33-1-25-113-48-227-72-341-2-13-15-21-28-21-212 0-424 0-637 0-13-1-27 7-29 21-24 114-48 228-72 341-15 1-29 0-43 1-10 0-19 8-19 17 0 13 0 25 0 37m213-75c-4-2-5-8-5-12 0-73 0-145 0-217 0-5 0-11 4-14 8-7 24-2 23 10 0 71 0 143 0 215 0 4 1 9-1 14-5 6-14 5-21 4m186 0c-5-1-9-5-8-10 1-75 0-150 0-225 0-7 7-11 13-11 5 0 14 2 15 9 0 73 0 146 0 219-1 4 0 9-1 13-4 7-13 6-19 5m176 0c-5-1-7-6-6-10 0-75-1-150 0-225 0-15 27-14 27 0 0 71 0 142 0 213 0 6 0 12 0 17-5 6-14 7-21 5m169-1c-5-2-6-8-5-13 0-74-1-147 0-221 0-14 26-15 26 0 1 73 0 146 1 219-1 3 0 7-2 10-4 6-13 8-20 5z" horiz-adv-x="1000" />

<glyph glyph-name="pick-up-laundry" unicode="&#xe811;" d="M70 822c6 8 18 8 28 7 11 0 22-10 22-22 0-5 0-10 0-15 18 0 37 0 56 0 0 10-2 22 6 30 7 8 19 8 29 7 11 0 21-11 21-22 0-5 0-10 0-15 9 0 17 1 25-1 8-3 13-11 13-19 0-62 0-124 0-186 0-7-5-14-11-17-4-2-8-2-13-2-67 0-134 0-201 0-10 0-20 9-19 19 0 62 0 124 0 186-1 10 7 19 17 20 7 0 14 0 21 0 0 10-2 22 6 30m15-12c-4-2-3-6-3-9 0-13 0-26 0-39 1 0 2-1 2-2 5-1 16-4 17 4 0 14 0 29 0 43-2 6-11 4-16 3m113 0c-4-1-3-6-3-9 0-13-1-26 0-39 3-5 9-2 14-3 3 0 5 4 4 7 0 14 1 27 0 41-2 6-10 3-15 3m-153-74c0-14 0-28 0-42 14 0 28 0 42 0 0 14 0 28 0 42-14 0-28 0-42 0m51 0c0-14 0-28 0-42 16 0 31 0 47 0 0 14 0 28 0 42-16 0-31 0-47 0m57 0c0-14 0-28 0-42 15 0 31 0 46 0 0 14 0 28 0 42-15 0-31 0-46 0m56 0c0-14 0-28 0-42 14 0 28 0 42 0 0 14 0 28 0 42-14 0-28 0-42 0m-164-52c0-15 0-31 0-47 14 0 28 0 42 0 0 16 0 32 0 47-14 0-28 0-42 0m51 0c0-15 0-31 0-47 16 0 31 0 47 0 0 16 0 32 0 47-16 0-31 0-47 0m57 0c0-15 0-31 0-47 15 0 31 0 46 0 0 16 0 32 0 47-15 0-31 0-46 0m56 0c0-15 0-31 0-47 14 0 28 0 42 0 0 16 0 32 0 47-14 0-28 0-42 0m-164-56c0-14 0-28 0-42 14 0 28 0 42 0 0 14 0 28 0 42-14 0-28 0-42 0m51-42c16 0 31 0 47 0 0 14 0 28 0 42-15 0-31 0-47 0 0-14 0-28 0-42m57 42c0-14-1-28 0-42 15 0 31 0 46 0 0 14 0 28 0 42-15 0-31 0-46 0m56 0c0-14 0-28 0-42 14 0 28 0 42 0 0 14 0 28 0 42-14 0-28 0-42 0z m597 192c8 8 22 8 31 0 16-13 32-26 47-40 0 13 0 26 0 39 0 3 3 6 7 6 12 0 24 0 37 0 4 1 7-2 7-6 0-27 0-54 0-81 14-11 28-23 42-34 3-2 5-6 2-9-3-6-8-10-12-15-2-4-8-4-11-1-45 38-90 76-135 113-42-35-85-71-127-106-4-3-7-7-11-9-4-1-7 2-10 5-3 4-8 9-11 14-1 3 1 6 4 8 46 39 93 77 140 116z m-98-139c38 31 75 63 113 94 38-31 76-63 114-94 0-32 0-63 0-95 0-7-6-14-13-13-25 0-50 0-76 0 0 25 0 50 0 75-16 0-33 1-50 0 0-25 0-50 0-75-25 0-50 0-75 0-8-1-14 6-13 13 0 32-1 64 0 95z m-580-141c3 1 6 2 9 2 239 0 479 0 719 0 10 1 20-7 20-18 1-12 1-25 0-37 0-10-9-17-18-17-241 0-482 0-723 0-10-1-19 7-19 17-1 11 0 23 0 35-1 8 4 16 12 18z m-20-119c8 3 17 2 25 2 245 0 489 0 734 0 7 0 14 1 20-2 5-2 10-7 10-13 2-13 1-27 1-41 0-9-10-17-19-16-254-1-508 0-762-1-9 0-20 6-21 16 0 12 0 25 0 37 0 8 5 16 12 18z m-72-117c6 4 12 3 19 3 297 0 595 0 892 0 7-1 14 1 20-2 6-2 11-8 11-15 0-13 0-25 0-38 0-9-9-17-19-17-11-1-22 0-33-1-25-113-48-227-72-341-2-13-15-21-28-21-213 0-426 0-639 0-12 0-25 8-27 20-24 115-48 229-72 342-15 1-29 0-43 1-10 0-19 8-19 17 0 13 0 25 0 37 0 7 4 13 10 15m207-89c-7 0-10-8-9-13 0-73 0-145 0-217 0-5 0-11 4-14 8-7 24-2 23 10 0 71 0 143 0 215 0 4 1 9-1 13-4 6-11 6-17 6m182-1c-5 0-9-6-8-11 1-74 0-149 0-224 0-16 31-14 28 2-1 71 0 142-1 213 0 5 1 10-1 15-3 7-12 6-18 5m179 1c-6 0-10-6-9-11 0-75-1-150 0-225 0-15 27-14 27 0 0 74 0 149 0 223 0 2 0 5-1 7-4 6-11 6-17 6m166-2c-5-2-5-9-5-13 0-74-1-148 0-221 0-14 26-15 26 0 1 73 0 146 1 219-1 4 0 8-3 11-5 6-13 7-19 4z" horiz-adv-x="1000" />

<glyph glyph-name="plus-minus" unicode="&#xe812;" d="M431 690c0 16 14 31 30 31 23 0 47 0 70 0 7 0 13 0 19-3 11-4 19-16 19-28 0-70 0-139 0-208 75 0 151 0 226 0 16 0 31-14 31-30 0-23 0-46 0-69 0-15-13-29-28-31-76 0-153 0-229 0 0-71 0-142 0-213 0-16-14-31-30-31-25 0-51 0-76 0-17-1-32 14-32 31 0 71 0 142 0 213-75 0-151 0-226 0-16 0-31 15-31 31 0 23 0 46 0 69 0 16 15 30 31 30 76 0 151 0 226 0 0 69 0 138 0 208z m-235-701c8 2 17 2 25 2 191 0 383 0 574 0 16 0 30-14 31-30 0-22 0-45 0-68 0-12-7-24-18-29-8-4-18-3-27-3-192 0-384 0-576 0-16 0-30 14-31 30 0 23 0 46 0 68 0 14 9 27 22 30z" horiz-adv-x="1000" />

<glyph glyph-name="rp" unicode="&#xe813;" d="M169 814c10 1 20 0 30 0 78 0 157 0 235 0 20 1 40-10 49-28 8-13 8-29 8-43 0-92 0-184 0-276 0-14-2-29-10-41-11-14-29-21-46-23-20-4-41-1-61-1 44-120 87-241 130-362 1-3 2-7-1-9-5-2-11-1-17-1-19 0-39-1-58 0-5 8-7 18-10 27-44 124-87 249-130 374-2 6-5 12-6 19 1 5 5 10 8 14 3 4 7 3 11 3 37 0 75 0 113 0 0 64 0 127 0 190 0 29 1 59 0 89-57 0-113 0-169 0-1-3-1-6-1-9 0-232 0-464 0-696 0-3 0-7-1-10-12-2-24-1-36-1-13 0-25-1-38 1-2 10-1 20-1 30 0 241 0 482 0 723 0 10-1 20 1 30z m490-301c37 4 74 10 111 10 15 1 32-2 44-13 13-11 16-29 16-45 0-101 0-203 0-304 0-20 1-40-5-58-11-39-48-70-89-72-39-3-78 0-117-2 0-4 0-8-1-13 1-55 0-111 1-166l-74 0c0 212 0 425 0 637 0 10-1 20 1 30 0 1 1 2 2 2 9 3 19 1 28 2 13-1 27 1 40-1 1-4 3-8 5-11 13-1 25 3 38 4m-22-62c-6 0-12 0-18-1-1-11 0-21 0-32 0-72 0-144 0-216 0-36-1-71 0-106 27-1 55 0 82 0 15-1 31 1 42 11 11 11 14 27 14 42 0 91 0 182 0 273 0 11 0 21-1 32-40-1-79-3-119-3z" horiz-adv-x="1000" />

<glyph glyph-name="o-logo" unicode="&#xe814;" d="M358 813c61 18 126 25 189 18 81-8 159-37 226-83 91-63 159-157 190-263 10-34 16-69 19-104 0-23 0-47-1-70 0-3 0-6-1-10-7-83-38-163-86-232-72-102-185-175-308-197-14-3-29-5-43-6-3-1-6-1-10-1-24-1-48-1-72 0-3 0-6 0-9 1-88 8-174 41-244 94-89 67-155 165-181 273-4 17-7 34-10 51-2 22-5 45-4 68-1 14 2 29 2 43 6 56 21 110 44 161 53 112 150 201 265 245 11 4 22 8 34 12m-4-75c-65-24-124-65-170-117-47-55-80-122-94-193-14-72-9-147 16-217 6-18 14-35 23-53 46-90 127-163 223-198 76-29 161-35 240-16 76 17 148 58 202 114 48 48 84 109 103 175 4 13 7 27 10 41 3 18 4 36 6 54 3 74-13 150-49 216-51 97-142 172-247 202-13 4-26 8-39 10-7 2-14 3-22 4-67 9-138 2-202-22z m121-30c26 1 53 0 80-4 11-2 22-5 33-6-1 0-3 0-4-1 5-1 10-2 16-3 68-20 130-62 176-117 33-40 57-87 70-137 18-69 15-143-8-211-16-47-42-90-75-126-13-13-25-28-41-38-21-16-44-31-68-43-16-8-33-14-51-19-19-5-38-11-58-12-4-1-8-1-12-1-21-1-43-1-64-1-34 3-67 11-98 23-88 33-162 102-201 188-20 43-30 91-32 138-1 38 4 75 15 112 21 73 66 139 127 185 33 25 71 44 111 57 7 2 14 4 21 6 10 2 20 4 29 6 11 1 22 2 34 4m-119-97c-50-28-93-70-120-121-23-42-36-90-36-138 12 5 23 10 32 18 8 8 20 10 30 14 32 10 67 3 97-8 14-6 29-11 43-16 28-9 57-19 86-17 20 0 39-1 59 1 22 5 45 9 66 16 10 3 20 6 30 10 16 5 33 11 50 13 24 6 50 3 73-6 10-3 18-9 28-11 1 18-3 35-7 52-21 93-90 172-178 207-13 5-26 10-40 13-6 2-11 2-17 1 2 1 7 1 6 5l-2-3c-13 1-25 5-38 5-15 0-30 0-45 0-41-4-81-16-117-35z" horiz-adv-x="1000" />

<glyph glyph-name="package-opened" unicode="&#xe815;" d="M147 654c8 2 15-2 21-4 10-1 21 1 31-1 13-2 27 0 41-2 11-2 22 0 33-2 10-2 21 0 31-2 11-2 22 0 33-2 13-2 26 0 39-2 11-2 23 0 34-2 10-2 19 0 29-2 13-2 26 0 38-2 10-2 21 1 30-2 4-5-1-11-3-15-6-12-11-24-17-36-7-14-13-29-19-43-13-26-24-53-37-79-12-26-23-53-36-79-2-5-3-11-8-14-10-1-18 5-27 7-13 2-25 8-39 10-12 5-25 6-37 11-8 3-16 3-24 6-11 5-24 6-36 11-10 2-21 6-31 9-9 1-18 4-26 7-15 3-28 8-42 11-13 6-27 7-40 12-9 2-18 4-27 7-7 4-20 1-21 11 0 8 6 15 10 21 24 46 50 90 74 135 7 12 12 27 26 31z m648-4c8 0 14 5 21 4 20-1 40 2 59-1 11-14 17-31 27-46 8-16 18-32 27-48 7-16 16-30 24-45 4-7 8-15 13-22 3-3 3-6 2-10-12-9-28-8-41-14-7-3-16-2-23-6-10-4-21-4-31-8-9-4-19-4-27-8-8-4-18-3-26-7-10-4-20-5-29-8-9-4-18-4-26-8-12-5-25-5-36-10-10-2-20-5-30-9-18-1-33-13-51-10-6 5-8 12-11 19-15 36-34 72-49 109-8 15-14 31-21 47-8 16-14 31-22 47-2 4-4 9-5 13 0 4 4 5 7 5 16 2 31 4 47 4 27 3 55 1 82 4 8 1 15 0 23 2 16 3 33 1 49 3 16-1 31 3 47 3z m-257-58c0 3 2 4 5 6 12-18 17-39 26-58 19-52 44-102 66-152 3-6 5-13 10-18 23 6 45 13 68 19 6 2 13 4 19 6 8 3 17 3 25 7 10 4 22 5 32 9 35 9 69 19 104 29 5 1 11 4 16 3 5-1 5-7 6-11 0-83 0-167 0-250-1-7 1-14-2-20-8-8-19-7-28-11-10-5-20-6-30-9-97-30-195-59-292-90-8-2-16-8-25-6 0 174 0 347 0 521 0 8-1 17 0 25z m-33-19c3 9 6 18 13 24 4-1 5-5 5-9-1-175-1-351-1-527 1-4-1-8-5-10-15 0-29 9-45 11-11 5-24 7-36 12-18 5-36 11-54 17-20 4-39 12-59 17-8 2-15 5-22 7-11 2-21 7-32 9-20 7-40 12-60 19-9 4-20 5-30 9-9 4-19 4-27 10-3 3-2 7-3 10 1 74 1 149 0 223 1 4 0 8 4 10 13 3 24-5 37-7 10-2 19-7 29-8 9-2 18-6 27-8 13-2 24-8 37-10 13-5 28-7 41-12 13-3 25-8 38-10 11-2 20-8 31-9 5 0 9 5 11 9 17 39 35 78 54 116 15 36 31 72 47 107z" horiz-adv-x="1000" />

<glyph glyph-name="package-plus" unicode="&#xe816;" d="M441 762c10 3 20 2 30 2 10 0 18-6 27-9 14-4 28-8 40-15 14-8 31-9 45-17 10-5 21-8 31-11 13-5 24-12 37-16 11-4 23-7 34-12 10-6 22-8 32-12 12-4 23-11 35-15 12-4 24-7 35-12 14-8 30-10 44-17 9-5 18-9 28-10 7-1 16-7 15-15-1-5-7-5-11-6-19-3-34-15-53-19-15-3-28-13-43-18-17-5-33-13-50-18-23-9-47-17-69-27-8-3-16-4-24-7-27-13-55-22-82-33-19-7-38-15-57-22-9-3-17-7-26-10-20 7-39 16-58 23-13 5-25 11-38 15-13 5-26 11-39 16-13 5-26 11-39 16-13 4-26 11-39 15-13 5-26 11-39 16-13 4-26 11-39 16-12 4-24 10-36 14-17 6-33 14-51 20-6 3-14 3-20 9 0 3 3 6 6 8 7 5 15 7 23 10 48 18 95 38 142 56 16 5 30 13 45 18 11 4 22 9 32 13 39 15 77 31 115 46 6 2 12 5 17 8m25-32c0-81 0-163 0-244 5 0 11 0 16 2 34 13 68 26 103 39 18 7 36 15 54 21 44 16 87 33 131 50 6 2 12 4 18 8-5 4-10 7-15 9-44 16-88 34-132 50-33 13-66 26-100 38-13 6-27 12-40 16-12 4-22 12-35 11m-49-14c-35-14-69-29-104-42-28-11-55-22-83-32-22-8-43-18-65-26-6-2-13-4-17-9-2-5 4-6 7-8 20-7 40-15 59-23 72-29 144-57 216-86 3-2 7-3 10-2 4 1 4 5 4 9 0 75 0 150 0 226-10 3-18-4-27-7z m-377-145c12-4 24-10 35-15 57-21 113-45 169-66 27-11 53-22 80-31 37-15 74-30 110-44 6-2 9-7 8-12 1-156 0-311 1-466-8-1-15-2-22 0-37 16-75 30-112 45-25 11-50 19-75 30-17 6-34 15-52 21-40 15-80 31-120 47-7 3-15 5-21 10-2 2-2 5-2 8 0 146 0 293 0 440 0 11 0 22 1 33m27-51c1-133 1-266 0-398 0-4 2-10 7-9 13 2 23 11 35 15 20 9 40 18 60 26 20 7 37 19 58 25 15 5 30 13 45 20 42 18 84 36 126 54 4 3 11 5 11 11 0 37 0 74 0 112 0 3 0 6 0 10-5 5-12 8-18 10-42 16-82 34-124 49-13 6-27 11-40 16-16 7-33 13-49 20-32 12-63 25-95 37-5 3-10 3-16 2m311-299c-16-6-32-13-48-20-58-27-117-52-176-77-15-7-30-14-46-19 0-4 1-9 6-10 24-9 48-19 73-29 27-10 53-21 80-31 42-18 84-33 126-51 5-2 10-3 15-4 2 10 1 20 1 30 0 74 0 148 0 222-11 0-21-7-31-11z m308 269c65 27 131 51 195 78 7-6 5-16 5-25 0-56 0-113 0-170 0-4 0-10-4-12-6-2-11 2-16 5-6 4-12 11-12 19 0 37 1 73 0 110 0 7 2 14 1 22 0 5-5 7-9 5-21-10-43-19-64-26-49-20-97-39-146-58-34-15-69-28-105-42-7-2-15-5-19-12 0-10 1-19 1-28-1-31 1-62-1-93 0-3 3-5 5-7 13-7 28-11 41-17 7-3 7-12 5-18-1-4-7-3-10-3-13 5-25 13-39 15 0-4-1-8-1-12 0-72 0-144 0-217 0-8-2-17 2-25 6 2 11 4 17 6 23 10 48 19 72 29 5 2 11 5 16 2 7-4 13-9 18-16 2-6-5-8-9-10-15-4-29-12-44-17-23-8-46-18-68-26-7-3-13-6-18-9-5-3-10-2-15-2-1 49 0 98-1 146 0 101 0 201 0 301 1 9-1 18 1 27 6 4 13 5 19 8 40 15 79 31 119 47 21 9 43 16 64 25z m74-140c28 3 56-2 82-11 17-8 34-14 48-26 29-21 50-51 62-83 3-10 9-18 9-28 0-20 0-39 0-59 0-7 0-14-2-21-6-12-9-26-16-37-6-14-16-27-26-39-10-14-25-25-40-34-28-19-62-28-96-30-37-1-75 10-107 30-13 7-23 17-33 27-13 13-24 27-31 43-15 31-24 65-21 100 3 13 4 27 9 40 3 9 6 19 10 28 11 20 25 38 42 54 12 10 25 21 40 26 22 11 46 18 70 20m-9-83c-5-1-5-7-5-11-1-16 0-32 0-49-1-3-1-7-3-10-6-3-14-2-20-2-16 0-31 1-46 0-5-1-4-6-4-9 0-15-1-31 0-46 18-1 37 0 56 0 4 0 9 0 14-2 2-3 2-6 2-9 2-21-1-42 2-63 19-2 38-2 57-1 0 19 0 37 0 55 0 5 0 11 2 16 2 3 7 3 10 4 18 0 36-1 53 0 3 0 7 0 9 2 3 7 1 15 2 23-1 9 1 19-2 28-4 2-8 2-13 2-14 0-28 0-43 0-5 0-10 0-14 2-4 3-4 8-4 12 0 16 0 32 0 47 0 4 0 8-2 11-8 2-17 1-25 2-8-1-17 0-26-2z" horiz-adv-x="1000" />

<glyph glyph-name="shirts-folded" unicode="&#xe817;" d="M535 631c41 0 81 3 121 4 12-1 23 1 34 1-2-5-4-10-9-12-20-11-39-24-59-36-4-3-10-2-15-2-19 0-39 0-58-1-6 0-12 1-18 3-1 12-3 25-3 37 0 4 4 7 7 6z m161-8c6 3 12 8 19 7 8-5 13-14 19-21 2-4 6-10 2-14-11-14-24-24-35-37-30-31-59-63-89-94-10 6-19 13-27 22-6 8-16 12-22 21-4 7-11 11-18 16 1 9 10 11 17 15 13 7 25 16 38 23 31 21 65 40 96 62z m-201-35c6 7 10 15 19 20 1-3 3-6 4-10 1-17 2-35 4-53 1-5 0-10 0-16-12-4-24-7-36-11-20-7-40-18-63-20 2 7 5 13 10 18 21 24 41 48 62 72z m256 1c13 3 27 1 40 2 17-1 37 2 52-8 9-6 6-20 0-27-12-13-25-24-37-37-21-22-43-42-63-64-9-9-19-17-28-25-28-29-55-58-84-86-13-12-25-26-38-38-19-19-39-38-57-59-11-11-29-12-44-10-52 5-104 6-156 11-13 1-20 19-12 28 11 18 28 30 43 43 14 11 28 23 42 34 15 11 28 24 43 35 9 7 17 15 25 22 26 23 53 44 80 67 3 3 8 6 13 6 6-5 12-11 18-15 7-5 11-13 17-18 5-4 12-1 15 3 14 15 29 30 42 45 24 27 49 52 73 78 5 5 9 11 16 13z m-320-8c12 9 28 6 42 5-3-11-14-19-21-28-12-15-26-30-38-46-8-11-19-18-25-30 1-1 3-3 4-4 18 2 34 10 51 15 0-2 0-6 0-8-16-11-31-23-45-35-30-23-60-47-89-70-24-17-46-36-69-54-16-13-33-25-43-43-4-7-3-15-4-23-10-2-20-1-30 0-32 2-65 4-98 7-9 0-19 3-27 9-7 4-9 13-5 20 5 8 9 16 17 21 30 21 61 42 91 63 22 17 46 31 68 48 13 10 27 19 41 28 22 14 42 29 63 43 39 27 77 56 117 82z m429-46c10 2 20-2 28-8 7-5 7-15 4-22-4-8-11-14-17-20-11-11-22-23-32-34-31-31-59-64-89-95-28-33-59-64-88-96-26-27-52-54-77-83-7-6-12-16-21-19-7-3-14-5-21-3-21 2-42 3-63 4-37 3-75 5-113 6-40 3-79 7-119 9-32 2-64 6-96 7-19 1-37 3-56 3-13 0-26 4-37 11-6 5-8 15-4 22 4 8 8 16 16 21 7 1 14-1 21-1 17-1 35-2 53-3 22-4 45-3 68-6 20-1 40-3 60-4 25-1 50-6 75-6 31 0 62-5 93-6 18-1 36-3 53-3 9 0 19-4 27 0 11 5 24 6 32 16 43 46 88 91 132 137 30 29 57 61 86 90 24 23 48 46 70 70 5 5 9 11 15 13z m-339-16c3 1 7 3 10 1 10-6 19-14 26-24-3-4-6-8-10-11-32-25-62-51-93-77-21-18-42-35-63-53-16-14-34-26-50-40-14-12-29-24-37-41-3-8 7-20-3-23-9-1-18 1-28 2-17 1-35 0-52 5-9 1-12 14-7 21 10 17 27 29 42 41 43 36 87 70 131 104 22 19 46 36 68 55 11 10 22 18 33 27 9 8 22 10 33 13z m382-43c8 4 17 1 25-3 10-3 16-15 13-25-2-5-6-9-9-13-25-30-51-60-77-90-14-17-28-32-42-48-10-10-18-21-27-32-23-25-45-52-68-78-10-13-22-24-32-37-9-11-18-22-27-33-11-11-19-24-30-35-7-10-20-14-31-17-15 0-29 3-43 3-18 1-35 3-53 4-27 0-53 4-80 4-22 2-45 4-67 5-43 5-86 4-129 9-12 0-25-1-38 1-16 2-33 2-49 3-12 1-24 0-34 5-10 4-22 10-22 22 1 9 5 16 10 23 3 5 8 11 14 10 14-3 28-2 41-4 31-1 62-5 92-5 9-1 18-3 28-3 21 0 41-4 62-4 25 0 50-4 74-4 15-1 30-2 46-3 18-2 37-1 56-4 7-1 16-1 24-2 12 0 25-2 38-1 13 3 25 8 34 19 13 16 27 32 41 46 8 9 15 18 23 27 19 18 35 39 53 57 16 15 29 33 45 48 26 32 56 62 83 94 16 17 32 34 47 53 3 3 6 6 9 8z" horiz-adv-x="1000" />

<glyph glyph-name="paket-langganan" unicode="&#xe818;" d="M621 788c9 12 24 17 39 17 18 1 40 1 53-13 10-10 8-25 8-37 35 0 70 0 105 0 0 10-2 22 3 31 8 13 24 19 38 19 20 1 42 1 56-14 10-9 7-24 8-36 15-1 30 1 45-1 11-3 23-10 24-22l0-256c-1-8-8-15-16-18-11-6-24-4-37-4-92 0-185 0-277 0-21-1-42 1-63-1-162 0-325 0-488 0-39 1-78 1-117 1 0 10 0 21 1 31 4 38 39 70 77 71 148 0 296 0 443 0 8 0 16-2 23-4 1 59 0 119 0 179 2 12 13 20 24 23 16 1 31-1 46 1 1 11-2 23 5 33m30-14c0-19 0-38 0-57 0-3 4-5 7-6 9-1 18-1 26 2 1 2 2 5 2 8 0 16 0 33 0 49 0 3-1 6-2 8-8 4-17 3-26 2-3-1-7-2-7-6m212 4c-2-2-3-5-2-8 0-16 0-33 0-49 0-3 1-6 2-8 10-3 23-5 32 2 0 20 1 41 0 61-9 8-22 4-32 2m-282-99c0-19 0-37 0-56 26 0 52 0 78 0 1 19 0 38 0 56-26 0-52 1-78 0m96 1c0-19 0-38 0-58 29 0 58 0 88 0l0 2c0 19 0 37 0 55-29 0-58 1-87 0l-1 1m105-1c0-19 0-37 0-56 29 0 57 0 86 0 0 0 1 2 2 2 0 18 0 36 0 54-29 1-59 0-88 0m104 1c0-19 0-38 0-57 5-1 10-1 14-1 22 0 44-1 66 0 1 20 0 39 1 58-19 2-37 0-55 1-9-1-18 1-26-1m-306-101c1-11-1-22 1-32 27 0 53-1 80 0 0 18 0 37 0 55 0 3 1 6-2 9-26-1-52 0-78 0-2-11 0-22-1-32m97 25c0-18 0-37 0-56 29 0 58 0 88 0 0 21 0 42 0 62-29 1-58 0-86 1-2-2-2-4-2-7m105-56c29 0 59 0 88 0 0 19 0 37 0 56 0 2-1 5-2 7-28-1-57 0-86-1 0-20 0-41 0-62m105 0c27 0 53 0 79 0 0 21 0 42 0 62-26 1-52 0-78 1-1-21-1-42-1-63m-306-13c0-4 0-8 2-12 6-8 11-17 14-26 2-6 2-13 4-19 19 1 39 0 58 0 1 19 0 38 1 57-27 0-53 0-79 0m306 0c1-19 0-38 1-57 26 0 52 0 78 0 0 19 0 38 0 57-26 0-52 0-79 0m-210 0c0-16 0-32 0-48 0-3-1-7 2-9 29 0 57 0 85 0 1 19 1 38 1 57-30 0-59 0-88 0m105 0c0-19 0-38 0-57 29 0 57 0 86 0 0 1 1 2 2 3 0 18 0 36 0 54-29 0-59 0-88 0z m-780-96c199 0 398 0 597 0 1-3 1-6 1-9 0-168 0-336 0-504 0-32-20-64-50-76l-498 0c-31 12-52 45-50 78 0 170 0 341 0 511m182-114c-35-27-59-66-69-108-5-21-6-44-4-66 5-44 25-86 56-116 29-30 68-49 109-54 28-3 57-1 84 7 49 17 92 54 114 102 17 34 21 74 16 112-6 42-27 82-58 111-35 34-84 53-133 52-42 1-83-15-115-40z m92 5c57 10 118-16 152-62 25-34 36-79 29-121-6-37-25-72-54-96-28-25-65-39-102-38-38-1-76 14-104 40-28 24-47 59-52 96-4 29-1 59 11 86 20 49 67 87 120 95m-71-68c-18-21-32-48-33-76 10 2 20 8 31 9 28 2 51-16 78-20 24-5 49 1 72 8 15 5 30 11 45 10 12 1 23-4 33-8-4 36-23 72-53 94-22 16-48 24-75 25-37 0-73-15-98-42z m472 418l1-1c1-18 0-36 1-55 28 0 57 0 86 0l0-2c-30 0-59 0-88 0 0 20 0 39 0 58z m209 0c8 2 17 0 26 1 18-1 36 1 55-1-1-19 0-38-1-58-22-1-44 0-66 0-4 0-9 0-14 1 0 19 0 38 0 57m2-1c0-18 0-36 0-54 25-2 51-1 77-1 1 12 0 24 0 37 0 6 1 12-1 18-25 0-51 0-76 0z m-308-100c1 10-1 21 1 32 3-21 1-42 1-62 26 0 51 0 77 0 0 21 0 41 0 62 3-3 2-6 2-9 0-18 0-37 0-55-27-1-53 0-80 0-2 10 0 21-1 32z" horiz-adv-x="1000" />

<glyph glyph-name="package" unicode="&#xe819;" d="M226 716c5 1 10 1 14 1 72 0 144 0 215 0 5 0 10 0 15 0 1-23-8-45-8-68-1-5-5-15 3-17 19 0 38 0 57 0 4 0 10 0 10 5-2 16-3 32-7 48-2 11-3 21-3 32 10 0 19 0 29 0 60 0 120 0 180 0 11 0 23 0 35-1 0-11 6-20 8-31 2-12 7-22 9-34 7-21 12-41 17-62 7-18 10-38 17-57 5-8 3-18 3-27-86 0-173 0-260 0-5-1-9 5-10 9-1 13-5 26-4 39-3 18-8 36-8 54-28 0-55 0-82 0-2-6-2-13-2-20-2-16-8-32-8-49-1-11-1-23-8-33-88 0-177 0-266 0 0 10-1 20 4 29 6 18 10 38 17 57 2 13 8 26 10 39 2 8 6 16 7 24 2 10 6 19 8 29 2 11 7 22 8 33m-1-96c2-3 5-6 9-5 72 0 144-1 216 0 0 3 0 6 0 10-72 0-144 0-216 0-4 0-7-3-9-5m317 5c0-2 0-6-1-9 4-1 8-2 12-2 65 1 130 1 195 0 7 1 15-1 20 6-3 2-5 5-8 5-73 0-145 0-218 0z m-370-136c210 1 419 1 629 1 6 0 13 0 19-1 1-42 0-85 0-127 0-127 1-253 0-379-216 0-432 0-648 0 0 152 0 305 0 457 0 16 0 33 0 49z" horiz-adv-x="1000" />

<glyph glyph-name="male" unicode="&#xe81a;" d="M470 817c5 2 10 2 14 2 18 0 36 0 53-1 8 1 12-6 17-9 14-9 24-22 32-35 8-18 13-40 6-59-3-8-4-16-9-22-5-8-10-16-17-22-8-7-16-13-26-17-15-4-32-9-48-5-8 2-16 3-23 6-22 10-41 29-49 52-2 12-8 25-4 37 3 8 3 16 5 23 9 23 28 39 49 50z m-92-191c9 0 17 3 26 3 61 0 123-1 184 0 11 0 21-2 32-3 10-1 19-6 28-9 15-7 29-16 39-29 5-7 10-13 15-20 2-7 1-14 1-21 0-75 0-151 0-226 0-5 0-9-4-12-6-6-11-14-19-16-12-4-27-2-36 7-6 6-13 12-14 20-1 8-1 16-1 24 0 54 0 107 0 160 0 4 0 7-1 11-4 4-11 5-16 2-2-9-1-18-1-26 0-191 0-382 0-573 1-18-13-32-25-43-9-3-18-1-27-2-9 1-18-1-27 2-11 9-23 22-25 37 0 128 0 256 0 383 0 5-2 9-7 9-5 0-7-4-7-9 0-127 0-254 0-381 0-9-6-17-11-25-7-6-12-16-23-15-11-1-22-1-33-1-5 1-11 0-15 4-8 6-16 15-22 24-1 2-1 5-1 8 0 196 0 392 0 588 0 6 0 12-1 18-5 1-11 1-15-2-2-8-1-17-1-26 0-54 0-108 0-162 1-12-8-21-16-29-10-6-22-10-33-5-10 3-16 11-23 18-3 2-2 6-2 10 0 75 0 151 0 226 0 9 0 17 1 25 12 20 29 37 50 47 10 3 19 8 30 9z" horiz-adv-x="1000" />

<glyph glyph-name="kupluk" unicode="&#xe81b;" d="M429 609c45 18 96 18 142 1 7-1 13-6 19-7l1-2c3 0 5-2 8-3 4-2 8-6 12-7 10-7 19-13 27-21 5-4 10-8 15-13 0-3 2-4 4-5 8-10 16-21 23-33 4-7 9-13 11-21 14-28 18-60 18-91 0-40 0-79 0-118-139 0-278 0-416 0 0 43 0 86 0 129 1 25 5 50 15 73 1 6 5 10 6 16l1 0c7 17 20 32 31 46 11 12 23 22 35 32 6 3 11 6 16 10 10 5 21 11 32 14z m-137-346c140 0 279 0 418 0 0-62 0-124 0-186-139 1-278 0-418 0 0 62 0 124 0 186z" horiz-adv-x="1000" />

<glyph glyph-name="paket-jeans" unicode="&#xe81c;" d="M580 833c0 5 1 11 2 16 14 0 28 0 42 0 0-5 0-11 0-16-15 0-30 0-44 0z m51 16c12 0 23 0 35 0 0-5 0-11 0-16-12 0-23 0-35 0 0 5 0 11 0 16z m43 0c3 0 7 0 10 0 0-5 0-11 0-16-3 0-6 0-10 0 0 5 0 11 0 16z m18 0c5 0 11 0 17 0 0-5 0-11 0-16-6 0-12 0-17 0 0 5 0 11 0 16z m24 0c14 0 28 0 42 0 1-5 2-11 2-16-14 0-29 0-44 0 0 5 0 11 0 16z m71 0c14 0 27 0 40 0 0-6 0-11 0-17-13 0-27 0-40 0 0 6 0 11 0 17z m48 0c16 0 32 0 48 0 0-5 0-11 0-17-16 0-32 0-48 0 0 6 0 12 0 17z m56 0c4 0 8 0 12 0 0-6 0-11 0-17-4 0-8 0-12 0 0 6 0 12 0 17z m20 0c9 0 19 0 29 0 0-5 0-11 0-17-10 0-19 0-29 0 0 6 0 12 0 17z m37 0c13 0 26 0 39 0 0-6 0-11 0-17-13 0-26 0-39 0 0 6 0 12 0 17z m-369-24c7 0 14 0 22 0-10-13-18-27-27-40 1 13 3 27 5 40z m28-5c2 2 3 5 6 5 18 0 35 0 53 0 0-26-1-53 1-79 8 1 13 9 19 14 2 4 6 7 6 12 0 17 0 35 0 53 12 0 24 0 37 0 10-14 19-29 29-43 5-7 11-13 11-22 1-11 3-23 3-35-9-100-19-200-27-301-23 0-45 0-68 0 0 78 0 157 0 235 1 3-1 7-5 8-5 2-10-3-9-8 0-78 0-157 0-235-22 0-43 0-64 0 0-164 0-328 0-492 0-22-10-45-26-60-11-12-27-17-42-22l-459 0c-9 3-19 6-28 11-16 10-29 25-35 43-7 15-4 32-5 48 0 162 0 324 0 486 197 0 394 0 590 0 0 5-1 10-1 15-136 0-272 0-407 0-61 0-121-1-182 0 0 16 0 32 5 47 7 20 23 38 43 46 8 4 17 7 26 8 148 0 296 0 444 0 8-1 17-4 25-6 17-6 31-19 40-34-6 69-12 138-19 207-1 11 1 21 2 32 1 6 1 13 5 18 10 16 21 32 32 49m-331-456c-62-8-119-49-145-105-16-29-21-62-20-94 2-43 19-84 47-116 14-15 29-29 47-39 50-30 115-35 168-12 57 22 101 74 114 134 10 46 4 97-20 138-30 52-85 88-144 95-16 1-31 1-47-1z m398 461c3 0 7 0 10 0 0-16 0-33 0-49 1-8-6-12-11-16 2 21 1 43 1 65z m65 0c8 0 15 0 22 0 2-13 3-27 5-40-9 13-18 27-27 40z m46-38c1 13 1 25 2 38 13 0 26 1 40-1-3-20-21-36-42-37z m49 38c17 0 33 0 49 0 0-31 0-62 0-92 1-4 0-11 6-8 8 6 14 14 22 21 0 26 0 53 0 79 10 0 19 0 29-1 2-12 7-24 16-32 9-8 21-11 33-13 4-110 8-221 11-332l0-23c-32 0-64 0-96 0-4 65-8 131-13 196-2 0-5 0-8 0-4-65-8-131-13-196-32 0-65-1-97 0 2 24 1 49 3 73 3 94 6 188 9 283 12 0 24 4 33 12 9 8 15 20 16 33z m57 0c4 0 8 0 12 0 1-23 0-46 0-69 2-8-8-12-12-19 1 30 0 59 0 88z m57 0c13 0 26 0 40 0 0-13 0-25 1-38-20 1-39 17-41 38z m-675-496c30 5 61 3 89-9 41-18 74-53 88-96 8-25 11-53 5-79-11-64-67-118-131-126-49-7-101 10-135 46-18 18-31 41-38 65-9 31-9 64 2 95 17 53 65 95 120 104m-5-29c-35-9-66-34-82-66-7-15-14-31-14-48 12 6 25 11 39 11 12-1 24-5 35-9 17-7 36-13 55-12 17-1 33 3 49 8 16 5 32 12 49 11 11 0 22-4 32-9-5 52-42 99-92 113-23 7-48 8-71 1z" horiz-adv-x="1000" />

<glyph glyph-name="paket-cipatka" unicode="&#xe81d;" d="M7 756c12 31 42 54 75 53 146 0 292 0 438 0 38 1 74-31 78-69 2-10 3-20 2-31-2-3-7-2-10-2-196 0-392 0-587 0-1 17-2 34 4 49z m-5-65c8 1 16 1 23 1 174 0 348 0 522 0 17 1 35-1 52-1 1-30 1-60 1-91 0-139 0-279 0-418-1-13-2-26-8-38-10-22-31-40-55-45-9-3-18-2-27-2-138 0-276 0-414 0-11 0-23-1-33 2-35 9-61 43-61 79 0 171 0 342 0 513m229-86c-45-17-81-52-102-95-21-43-25-93-11-139 12-42 39-79 74-104 30-21 66-33 103-35 32 0 64 7 93 22 45 23 80 64 95 113 15 47 12 100-11 145-21 43-58 77-103 94-44 17-94 17-138-1z m56-20c36 3 72-7 101-27 36-23 60-61 68-102 4-15 3-30 2-45-3-37-20-73-47-99-28-29-69-47-110-45-33-1-65 10-91 29-32 22-55 57-63 96-7 31-4 64 8 94 14 35 40 64 73 81 19 10 39 16 59 18m-115-145c13 3 25 10 39 8 25-2 47-16 72-20 20-3 40-1 59 6 19 5 38 14 59 13 10 0 20-6 30-7-4 34-21 66-48 88-23 19-54 30-84 29-64 1-123-54-127-117z m583-230c15 1 29 1 44 1 16 1 32 2 49 1-5-8-14-11-21-16-9-5-17-13-28-13-14 0-28 0-42 2-3 8-2 17-2 25z m101-2c4 2 9 1 12-2 3-5 9-10 8-16-5-7-12-13-18-19-18-18-35-39-54-56-1 0-2-1-3-1-12 9-22 20-33 31-2 1-4 3-3 5 3 3 6 5 10 7 20 11 39 25 58 36 8 5 15 11 23 15z m-141-46c10 12 20 25 31 35 4-15 6-31 5-46-13-4-26-9-39-14-6-2-12-3-19-3 5 11 15 19 22 28z m163 19c3 3 6 6 11 6 11 0 23 0 35 0 6-1 13-2 16-8 3-8-4-14-9-19-55-55-109-109-163-164-6-5-10-12-18-14-21-2-42 2-63 2-15 2-30 1-44 4-4 0-7 3-9 6 0 4 0 9 3 12 8 10 18 18 28 27 36 28 70 58 104 87 3 2 8 5 11 3 8-5 13-13 21-18 5-1 8 4 12 7 21 23 43 47 65 69z m-182 0c8 5 18 4 27 4-6-13-18-22-26-33-8-11-18-19-23-30 11 0 21 5 32 7-2-3-3-6-6-8-42-33-85-66-127-100-8-7-12-17-14-27-22-1-43 3-65 4-8 0-17 0-24 6-2 2-5 5-4 8 2 8 8 14 14 18 72 50 145 100 216 151z m234-43c7 7 12 18 23 16 7 0 13-4 15-11-2-7-6-12-11-17-51-52-98-108-149-160-11-10-18-22-30-31-9-4-20-1-30 0-61 4-122 6-183 12-23 2-45 2-67 4-6 1-12 4-17 8-2 9 3 17 9 23 21 0 42-3 63-4 19-1 37-3 56-4 12-3 25-1 38-4 24 0 48-3 72-4 13 0 26-4 39 1 11 3 18 12 25 20 27 29 55 56 82 84 21 23 44 45 65 67z m-205-5c9 7 20 13 31 13 6-4 12-9 15-15-6-7-14-13-21-19-27-22-54-45-81-67-14-11-29-21-40-35-5-6-4-14-5-21-15 0-31 1-46 3-4 1-7 5-9 8 3 8 9 15 15 20 47 38 95 75 141 113z m247-13c6 2 13 1 17-3 3-3 8-7 6-11-4-9-11-16-17-23-26-31-53-60-79-91-27-32-54-63-81-95-6-7-13-15-23-15-20-1-39 3-59 3-8 2-17 1-25 1-44 4-87 6-131 10-13 0-26 0-39 1-13 2-27-1-38 7-4 2-6 6-8 10 2 6 4 12 9 17 3 1 7 0 10 1 29-1 57-4 86-5-3-1-6-2-8-2 15 2 31 0 47-1 9-1 18-1 27-1 10-2 20-2 30-2 24-2 49-3 74-5 10-1 21 3 28 11 29 35 60 67 91 101 23 27 47 52 71 79 4 5 7 10 12 13z m-812-94c1 4 3 7 6 11 16 0 33-2 49-3-3-1-7-1-10-1 11 1 21 0 32-2 45-10 89-29 125-59 17-16 36-30 50-48 13-17 28-34 37-54-87 0-173 0-260 0-7 0-15 0-23 1-9 6-16 13-24 19-9 8-20 14-27 23 15 38 29 76 45 113m24-20c-7-2-11-8-13-14-8-23-8-48-1-71 1-5 4-11 9-13 13-1 27-1 39 3 19 7 38 17 51 34 3 4 8 8 7 14 0 7-5 12-10 16-14 11-29 20-45 26-12 4-25 8-37 5z m64-58c5 3 12 0 16-4-7-8-16-14-26-19-10-5-20-12-32-12 1 4-1 10 4 12 12 9 25 16 38 23z m-82-86c33 1 66 1 100 1 62 0 124 0 186 0 2-5 3-9 5-13l-291 0c0 4 0 8 0 12z" horiz-adv-x="1000" />

<glyph glyph-name="paket-jas" unicode="&#xe81e;" d="M758 850l8 0c2-16 3-32 7-48 4-16 12-32 17-48 2-6 5-12 8-17 7 16 14 34 21 51 8 19 10 41 14 62l8 0c5-5 12-9 14-17 4-12 9-24 13-36-3-2-7-5-10-7 4-5 9-10 13-16-36-41-71-82-107-124-3-3-6-5-9-8 2 10 7 19 11 28 7 13 12 27 19 40-18 23-36 46-53 70 3 6 7 11 11 17-4 2-8 4-12 7 3 10 8 20 12 30 3 7 9 11 15 16z m14 0l54 0c-2-12-4-25-6-37-2-12-7-23-11-34-4-11-7-22-12-32-6 15-10 31-16 47-7 18-6 37-9 56z m84-9c29-10 59-19 88-28-14-37-18-77-22-115-2-14-1-28-5-42-2-14-8-28-7-42 2-30 4-59 6-88 2-17 3-34 8-51 5-20 6-40 10-61 0-4 4-12-3-14-20-7-40-10-60-14-15-2-30-5-45-7-3 2-6 6-9 9-4 6-10 11-12 19-12 41-26 82-33 124-5 33-10 67-11 100 0 4-1 9 2 13 38 43 75 87 113 130-4 6-9 11-13 16 3 2 6 4 9 6 1 3-1 6-2 9-4 12-9 24-14 36m-23-137c0-19 1-38 0-57 0-5 0-13 7-13 16-1 33-1 49 0 5-1 8 5 7 9 1 20 0 41 0 61-21 1-42 1-63 0m-63-73c1-4 5-6 7-9 3 2 7 4 8 8 0 4-5 6-8 9-2-2-5-5-7-8m4-59c-4-1-5-7-2-10 4-5 11-2 13 3 1 6-6 11-11 7z m-118 240c28 10 56 19 84 28-4-13-11-24-14-37 4-2 8-4 12-6-4-6-8-11-11-17 2-3 3-6 5-8 16-20 32-41 48-62-9-18-17-37-26-56-4-7-3-15-3-23 1-32 5-64 11-95 7-46 22-90 35-135-8-7-16-16-26-21-4-2-9 0-13 0-32 6-64 14-91 33 4 42 13 83 19 125 6 29 5 60 5 89 0 17-10 31-11 47-2 19-3 38-5 57-4 27-8 55-19 81z m-19-3c4 3 10 3 14 4 12-30 16-61 20-92 2-18 4-35 5-53-8-31-7-63-7-95-2-26 1-52 0-78-1-7 2-13 2-20-4-20-7-39-8-60-21 1-41 0-62 1 0 14-2 27-2 41-1-6-7-4-11-4-186 0-371 0-557 0-9 0-18 0-27 0 0 11 0 21 1 32 4 26 22 51 47 61 8 3 17 7 26 7 147 0 294 0 442 0 29-1 57-18 70-45 3-8 8-16 6-25 0-2 1-4 3-6 1 8-2 15-2 22 0 14 0 28 0 42 3 46 9 91 16 136 5 38 11 76 17 114 1 6 2 13 7 18z m306-15c1 6 3 13 6 19 5 0 10-1 13-4 6-5 7-13 8-19 11-70 22-140 30-210l0-153c0-4-1-7-1-11-20-1-41 0-61-1-1 18-4 36-8 53-2 11 2 22 1 33-1 47 2 95-2 142 0 11-5 22-4 33 3 40 7 79 18 118z m-107-94c19 0 38 0 57 0 0-17 0-34 0-51 0-5-2-12-8-11-14 0-27-1-41 0-6 0-7 6-7 11 0 17 0 34-1 51z m-832-262c198 0 397 0 595 0 0-169 0-337 0-506 0-23-10-45-27-61-11-11-26-16-41-21l-459 0c-13 4-26 8-37 17-19 16-31 40-31 65 0 169 0 337 0 506m273-74c-63-8-120-49-147-107-15-28-20-61-19-92 2-39 16-77 40-108 25-31 60-56 99-66 27-8 55-9 82-5 19 3 36 9 53 17 60 29 104 92 106 160 2 28-2 57-13 83-15 39-44 72-80 93-36 22-80 30-121 25z m-2-35c26 4 55 3 80-7 35-13 65-37 83-70 13-21 19-47 20-72 2-43-14-86-45-116-35-36-88-53-137-44-67 9-123 68-130 135-4 30 1 61 15 89 21 44 65 78 114 85m-61-58c-24-22-40-53-42-85 12 5 24 10 37 11 20-1 38-11 57-16 22-7 46-7 69-1 21 5 41 16 64 15 11 0 22-4 32-9-3 31-17 61-40 82-23 24-57 36-90 37-32-1-64-12-87-34z" horiz-adv-x="1000" />

<glyph glyph-name="paket-cipat" unicode="&#xe81f;" d="M62 781c9 3 20 3 30 3 140 0 280 0 420 0 10 0 20 0 30-3 22-7 41-24 51-45 8-17 7-36 6-54-5-1-10-1-15-1-194 1-387 0-581 1-2 20-1 42 9 60 11 19 29 33 50 39z m-60-115c10 2 20 0 29 1 183 0 365 0 547 0 7 0 14-1 21-1 2-80 1-160 1-240 0-86 0-173 0-260 0-17-1-36-10-52-14-26-43-44-72-43-145 0-289 0-434 0-34-1-67 24-77 56-6 15-5 30-5 45 0 165 0 329 0 494m283-73c-50-5-97-29-129-67-30-35-47-80-46-125-1-32 8-64 23-92 24-46 67-81 117-95 62-18 132-1 179 43 30 27 51 64 59 103 8 41 4 84-13 121-18 38-48 71-85 90-32 18-69 25-105 22z m-39-43c30 11 63 13 94 5 38-10 73-35 94-68 29-45 33-105 10-154-24-54-81-93-141-92-19 0-38 3-55 9-35 13-65 38-83 70-25 42-29 95-10 140 16 41 50 74 91 90m-43-63c-17-20-30-46-31-73 13 3 24 10 37 9 19-1 37-10 54-15 26-10 55-8 80 0 19 6 38 15 58 13 10 1 20-5 30-6-4 31-19 62-43 83-23 21-55 34-87 33-37 1-74-16-98-44z m552-302c31 0 61 3 92 2 0-1 0-2-1-3-7-7-16-11-25-17-6-4-12-9-20-9-15 0-30-1-44 1-3 9-3 17-2 26z m100-3c4 3 10 2 13-2 3-4 9-9 8-16-3-4-8-8-12-12-19-19-37-40-56-59-2-2-4-5-7-4-10 6-18 16-26 24-4 3-8 7-11 11 2 2 5 4 7 6 29 16 56 35 84 52z m-144-50c12 13 22 28 35 40 4-15 6-31 5-47-7-1-13-4-20-6-13-4-24-11-38-11 4 9 11 16 18 24z m171 27c4 3 10 2 14 3 11 0 22 0 32-1 6-1 14-5 13-12-2-8-10-14-15-20-27-27-55-54-82-81-25-26-51-51-76-77-5-5-10-12-18-14-4-1-9-2-14-2-9 2-19 1-28 3-22 1-43 2-65 4-4 0-7 4-9 7 0 3-1 7 1 10 8 11 19 18 29 27 33 26 64 53 96 80 5 5 11 10 17 13 9-5 15-13 23-19 4-3 8 2 11 4 18 20 36 41 55 60 5 5 10 12 16 15z m-187-4c8 6 18 5 27 4-5-13-17-22-25-33-7-10-18-18-23-30 11 0 21 6 31 8-1-6-6-9-11-13-40-32-81-63-121-96-8-6-12-16-14-26-14-1-28 1-42 2-13 2-27 0-41 4-5 2-12 6-10 13 6 15 21 21 33 29 65 46 131 91 196 138z m245-32c7 10 25 6 28-5-2-7-6-12-10-17-52-53-101-110-153-163-10-10-18-24-31-30-7 0-13-1-20 0-11 3-23 1-35 3-28 2-56 4-84 5-13 2-26 0-38 3-25 1-49 4-74 5-14 1-30-1-41 10-3 8 2 17 9 22 9 0 19 1 28-1 35-3 69-5 104-8 7-1 14 0 22-1 12-2 24-1 36-3 17-1 33-2 50-3 13-2 29-1 39 8 14 13 26 27 39 41 25 25 49 51 74 76 19 20 39 38 57 58z m-215-15c9 7 20 13 31 12 6-3 12-8 15-14-6-7-14-13-21-19-28-23-56-47-84-70-13-10-26-20-37-32-5-6-4-14-5-21-14 0-28 1-42 2-6 0-11 4-13 9 3 8 9 14 15 19 46 39 95 75 141 114z m233-28c6 6 12 18 23 16 6-1 10-7 15-11 0-2-1-5-1-6-18-24-38-46-58-69-20-22-39-46-59-69-21-23-41-47-60-71-7-7-16-15-27-14-9 1-18 0-27 2-11 2-23 0-33 2-26 1-52 4-77 5-13 2-26 1-39 3-7 1-15 0-23 1-17 3-35 1-53 3-10 1-20 0-29 3-6 2-12 6-15 12 1 8 6 16 12 21 40-3 81-7 121-8 14-3 28-1 42-4 27-1 55-3 82-4 12-2 24-4 36 2 7 3 11 10 16 15 22 25 44 50 67 74 29 32 58 65 87 97z" horiz-adv-x="1000" />

<glyph glyph-name="paket-cipatkangi" unicode="&#xe820;" d="M5 750c10 34 42 60 77 59 139 0 279 0 418 0 15 0 30 2 44-3 20-7 38-23 47-42 8-15 9-32 9-49 0-3 1-9-4-8-198 0-396 0-594 0 0 14-1 29 3 43z m-3-58c198 0 395 0 592 0 3 1 7 0 6-4 0-167 0-335 0-502-1-15-2-30-9-44-13-27-43-46-73-45-146 0-291 0-436 0-25 0-49 13-64 33-10 15-16 32-16 50 0 171 0 342 0 512m144-154c-28-38-41-88-35-136 5-42 25-84 56-114 31-31 73-51 116-55 17 0 34-1 51 3 41 7 80 28 108 59 35 39 54 93 49 145-3 73-54 141-122 166-23 9-48 14-72 13-59-1-117-32-151-81z m139 46c36 4 72-5 102-25 44-28 73-80 72-133 1-40-16-81-44-110-29-31-71-51-114-49-62-2-121 38-145 95-24 54-14 123 26 168 25 31 63 50 103 54m5-27c-36-3-70-22-92-51-14-19-25-42-26-66 13 3 25 9 39 8 25-2 46-16 71-20 20-3 41-1 60 6 16 4 31 11 47 12 14 2 29-2 42-8-3 26-13 51-30 71-21 27-54 45-89 48-7 1-14 1-22 0z m445-28c7 0 13 0 20 0 0-9 0-18 0-27-7 0-13 0-20 0 0 9 0 18 0 27z m26-26c-1 8 0 17 0 26 23-1 46 0 69-1 12-2 20-13 22-25-10-1-19-1-28-1 0-9-1-18 0-27 5-7 16-10 18-19 2-13 0-27 1-40 19-12 35-31 37-54 1-17 1-33 0-49 0-13-10-23-20-28-4-1-8-2-12-2-25 0-50 0-74 0-6 0-11 1-16 2-13 5-22 18-22 32-1 25-3 53 12 74 6 11 17 17 25 26 4 12-1 26 2 39 3 8 11 12 18 17-1 4-3 8-5 12-9-8-21-14-33-13 8 8 18 14 22 25-6 1-11 3-16 6m52-47c0-35 0-70 0-106 18 2 35 8 54 6-3 12-7 24-15 33-7 8-17 13-25 19 1 16 1 32 0 48-5 0-9 0-14 0m-23-1c0-12 0-24 0-37 0-4 0-9-4-12-7-6-15-11-21-18-9-9-12-22-14-34 8 1 17 4 25 2 10-1 19-6 29-5 0 34 0 69 0 103-4 3-10 1-15 1z m-35-245c31 0 62 4 93 2-9-10-21-15-31-22-10-7-21-7-32-7-10 1-20-1-30 2 0 9 0 17 0 25z m70-21c13 7 24 16 37 21 6-5 14-11 15-20-12-12-24-24-36-36-12-14-24-27-37-40-1 0-2 0-3 0-14 10-25 23-38 35 21 14 42 26 62 40z m-99-14c7 8 13 16 21 23 3-16 4-32 4-47-20-4-38-17-59-17 10 15 23 27 34 41z m139-7c7 7 13 16 22 19 12 0 25 0 37 0 6-1 13-2 16-8 3-6-2-12-6-16-31-32-63-62-93-93-26-27-53-53-79-80-4-3-8-8-14-8-21-2-42 2-62 2-15 2-30 1-44 4-4 1-6 4-8 6 0 4 0 8 2 11 7 11 18 18 28 27 30 24 59 49 88 74 9 6 17 13 25 19 9-6 16-14 25-20 5-1 8 5 12 8 17 18 33 37 51 55z m-178 6c6 4 12 9 19 10 5 1 11 1 17 1-2-5-6-9-9-12-13-17-29-33-41-51 11 0 22 5 33 7-4-6-9-10-14-14-35-27-70-55-105-83-7-6-16-11-21-20-4-5-5-12-7-18-14-1-28 2-41 2-14 2-27 1-40 4-6 2-13 6-12 12 3 9 9 15 16 20 40 27 80 55 119 82 29 20 58 40 86 60z m237-43c8 8 13 18 23 23 8 2 18-2 21-11-2-9-10-16-16-22-23-24-45-49-68-73-27-30-54-59-82-88-8-8-14-17-23-24-12-7-26 0-39-1-35 3-70 4-105 6-12 3-24 1-36 3-26 2-52 5-78 5-13 2-30-1-39 11-3 9 3 17 10 22 40-2 80-6 121-8 11-3 24-1 35-3 27-2 54-4 81-5 15-3 33-2 45 11 23 25 47 49 70 73 26 28 53 55 80 81z m-202-1c9 8 20 16 32 16 8-3 13-9 18-15-34-29-69-57-103-86-13-11-28-21-39-34-5-6-6-14-6-22-12 1-24 0-36 2-7 1-16 1-19 10 3 7 9 14 15 19 46 37 92 73 138 110z m249-11c3 3 6 2 10 2 6 0 10-6 14-10 0-2 0-4 0-6-8-13-19-24-29-36-45-52-90-104-134-156-8-10-16-20-26-28-6-4-14-3-21-3-14-1-27 3-41 2-11 2-22 2-33 2-19 2-38 3-57 4-11 2-21 1-31 3-14 2-29 0-43 2-13 1-27 0-41 2-14 1-31 0-42 11-3 11 3 24 15 25 32-3 65-5 97-7 18 0 36-3 54-3 14-2 29-1 44-3 14-1 29-2 43-3 15-2 33-4 45 7 25 28 49 56 75 83 26 29 51 58 77 86 8 8 15 18 24 26z m-811-91c2 3 4 6 6 8 35 1 70-3 104-14 37-12 72-32 101-58 15-13 29-25 41-40 13-17 28-34 37-54-84 0-168 0-252 0-10 0-20-1-31 1-9 5-17 14-25 20-8 7-18 12-25 21-1 4 1 9 3 13 14 34 27 69 41 103m21-23c-6-4-10-10-11-16-7-21-7-44-1-65 2-6 4-13 10-16 17-1 35 0 50 7 19 9 36 21 46 39 4 8-2 16-8 20-19 16-41 29-66 33-6 0-14 1-20-2z m67-57c5 2 10-1 15-2 0-1 0-2 0-3-15-15-35-26-56-30 0 4-1 7-1 11 15 7 28 17 42 24z m172-85c11 0 21 0 32-1 2-4 3-8 5-12l-291 0c0 4 0 8 0 13 84 0 169 0 254 0z" horiz-adv-x="1000" />

<glyph glyph-name="o-pin" unicode="&#xe821;" d="M413 842c17 4 34 5 52 8 30-1 60 2 90-3 24-2 48-9 72-16 40-13 77-35 112-59 36-26 70-58 94-95 5-12 13-23 19-34 36-68 53-146 46-223-6-70-31-139-69-198-12-19-26-36-37-56-46-60-100-113-154-165-12-11-22-24-34-34-20-18-39-36-59-53-14-12-26-26-40-38-3-3-9-3-11 1-14 13-29 25-42 38-15 14-30 28-45 41-15 13-28 28-43 41-28 26-56 52-83 80-36 37-70 75-100 118-13 20-26 41-36 63-2 9-6 18-10 26-22 50-32 105-35 160 0 13 1 27 0 40 2 17 2 34 6 51 10 48 30 95 58 136 16 25 36 48 58 69 39 34 84 63 132 84 19 8 39 13 59 18m-21-93c-1-1-3-2-4-3-91-33-165-109-195-201-6-16-9-33-12-50-1-4-1-8 0-12-1 2-1 4-2 6-3-31-3-62 0-92 1 2 1 5 2 8-1-3-1-7-1-10 7-45 23-88 48-126 42-66 108-116 184-137l-2-1c20-6 41-10 63-11 18-3 36-2 54 0 14 0 27 1 40 6 73 15 140 56 187 115 25 31 43 66 56 104 2 2 1 5 2 7 3 6 3 13 4 20 1 0 2 1 3 2 2 12 2 24 4 36 1 22 1 44 0 65-2 8-2 16-2 24-1 0-2 0-2 0 0 1 0 4 0 5-1 4-2 7-3 10-1 6-1 12-4 18 0 7-5 12-7 19-26 75-83 140-154 177-19 10-39 20-60 25-2 1-4 3-7 4-22 5-45 8-68 10-42 2-85-4-124-18z m3-44c24 11 50 17 76 19 38 2 77 2 113-11 91-27 165-103 189-195 3-9 4-20 7-29 0-5 0-10 1-14 0 2 1 5 1 8 0-11-1-22 2-33 0-7 1-13-1-20-1-10-1-21 0-31-1 3-2 7-2 10-1-5-1-9-1-14-2-4-2-8-3-12-12-62-47-120-97-160-19-15-40-29-63-39-26-12-55-20-84-23-20 0-40-1-60 1-90 8-174 63-218 142-8 14-15 29-20 44-1 2-2 4-2 6-1 3-2 5-3 8-1 4-2 9-3 14 0 0-1 0-2 0 0 3 0 5 0 7-2 3-1 7-2 10-1 4-2 8-3 12-1 25-1 51 0 76 2 6 3 11 3 17 1 0 2 0 2 0 0 3 0 7 1 11 0 0 1 1 1 1 2 13 7 25 11 37 28 71 86 130 157 158m6-52c-48-23-87-63-110-110-13-29-22-61-21-94 13 2 22 15 35 19 9 3 18 7 27 7 14 0 29 1 43-4 33-10 64-25 98-30 20-1 40-1 60-1 12 0 24 5 35 7 29 6 55 19 84 25 13 1 26 1 39 0 11-2 22-5 31-10 4-3 8-2 12-2-2 4-3 9-4 13 0 5-1 9-1 14 0 0-1 1-1 1-7 40-26 76-52 107-35 41-86 70-141 78-10 1-21 0-31 2-36 1-71-7-103-22z m-9 96c39 14 82 20 124 18 23-2 46-5 68-10 3-1 5-3 7-4-29 7-58 11-87 12-39 0-79-7-116-19 1 1 3 2 4 3z m441-72c7-7 11-15 16-23 18-31 32-66 41-101 6-27 12-54 12-82 0-24 1-48-3-72-7-46-20-91-42-133-15-32-35-61-55-89-3-4-6-7-10-11 11 20 25 37 37 56 38 59 63 128 69 198 7 77-10 155-46 223-6 11-14 22-19 34z m-733-193c1-13 0-27 0-40 3-55 13-110 35-160 4-8 8-17 10-26-2 3-5 7-7 11-24 52-38 109-40 167-1 16-2 32 2 48z m312-352c50-14 103-15 155-6-13-5-26-6-40-6-18-2-36-3-54 0-22 1-43 5-63 11l2 1z m40-217c13-13 28-25 42-38 2-4 8-4 11-1 14 12 26 26 40 38 11-5 24-4 35-5 23 1 46-3 68-4 19-2 37-3 55-7 17-3 34-5 49-13 4-2 4-7 3-10-9-7-20-10-31-12-23-4-46-8-70-10-15-3-30-1-45-3l-258 0c-4 3-9 3-13 3-15 2-29 2-44 6-19 2-38 6-55 16 1 3 0 8 4 9 14 9 32 12 48 14 30 4 60 10 90 10 23 4 46 0 69 3 0 1 1 3 2 4z" horiz-adv-x="1000" />

<glyph glyph-name="o-machine" unicode="&#xe822;" d="M183 850l636 0c12-2 24-5 35-10 33-14 59-45 66-81 4-17 3-35 3-52-282 0-564 0-846 0 0 17-1 34 2 51 5 22 16 42 31 58 20 20 46 31 73 34z m-106-199c0 11 0 23 0 34 282 0 564 0 846 0 0-14 0-28 0-42 0-220 0-440 0-660 0-14 0-28-2-41-5-21-15-40-30-56-18-20-45-32-72-36l-638 0c-21 3-42 11-59 24-29 22-46 57-45 93 0 228 0 456 0 684m391-70c-73-8-142-48-185-107-33-44-52-97-54-151-3-60 15-120 50-168 28-39 66-71 109-91 45-20 95-28 143-22 53 6 104 28 144 63 47 39 80 94 91 154 10 53 5 108-16 158-25 59-71 108-128 137-47 24-102 33-154 27z m19-46c53 3 106-14 148-46 43-32 74-80 84-133 10-51 2-105-22-150-26-49-72-88-125-106-56-19-119-15-172 12-46 22-83 62-104 108-21 48-25 103-11 154 15 51 49 97 95 126 32 20 69 32 107 35m-16-41c-41-6-78-26-106-56-28-30-46-69-49-110 18 8 37 16 57 15 30-2 56-18 84-25 32-8 66-6 98 3 28 7 54 21 84 20 16 0 31-6 45-13-4 53-33 102-75 133-39 29-90 41-138 33z" horiz-adv-x="1000" />

<glyph glyph-name="o-m2" unicode="&#xe823;" d="M272 834c7 2 14 1 21 1 139 0 279 0 418 0 17 1 33-15 33-32 0-303 0-607 0-910 1-18-15-34-33-33-143 0-287 0-430 0-13-1-25 9-30 21-3 7-2 14-2 22 0 299 0 599 0 898 0 14 10 28 23 33m9-117c0-252 0-504 0-756 144 0 288 0 432 0-1 252-1 504 0 756-144 0-288 0-432 0z m196-227c38 5 77-4 108-25 29-19 51-48 63-81 8-22 9-47 7-71-4-35-20-68-44-93-30-31-72-48-115-47-63-2-122 40-146 98-12 28-15 59-10 89 6 34 24 66 49 89 24 22 55 37 88 41m8-22c-39-3-75-24-98-56-20-27-30-63-25-97 4-32 20-63 44-85 19-17 43-29 69-33 33-6 69 2 97 20 26 18 47 45 56 75 8 29 8 61-3 89-11 28-32 53-59 69-24 14-53 21-81 18z m-2-19c30 4 62-5 86-24 25-18 41-47 45-77 2-18 1-36-4-53-10-32-34-58-64-72-22-10-48-12-72-7-32 6-61 27-78 55-19 31-22 71-9 104 15 40 53 69 96 74m-57-50c-17-18-27-42-27-66 8 3 14 10 23 11 18 5 34-6 51-11 12-4 24-4 37-3 16 2 31 8 46 12 13 4 27 1 39-5-1 23-11 45-27 62-17 19-44 31-70 31-27 1-54-11-72-31z" horiz-adv-x="1000" />

<glyph glyph-name="o-logo-machine" unicode="&#xe824;" d="M184 850l635 0c12-2 24-5 36-10 33-15 58-46 65-81 4-17 3-35 3-52-282-1-564 0-846 0 0 17-1 34 2 51 5 22 16 42 31 58 20 20 47 32 74 34z m-107-199c0 11 0 23 0 34 282 0 564 0 846 0 0-15 0-31 0-46 0-224 0-448 0-672 0-28-10-57-29-78-19-22-47-35-75-39l-638 0c-21 3-42 10-59 24-29 22-46 57-45 93 0 228 0 456 0 684m391-70c-47-6-93-24-131-53-42-31-74-74-92-123-22-59-22-127 0-187 21-57 63-107 115-139 48-29 104-42 159-38 52 4 102 22 143 53 52 39 90 97 103 160 12 55 7 114-16 165-25 58-70 106-126 134-47 25-102 35-155 28z m19-46c50 3 100-12 140-40 45-30 77-77 90-129 13-53 6-111-19-159-26-48-70-87-122-105-52-20-112-18-164 4-50 21-91 61-114 110-21 45-27 98-16 146 11 46 36 88 72 119 37 32 84 51 133 54m-11-40c-41-5-81-25-110-56-29-30-47-70-50-111 16 7 33 15 51 15 23 1 44-9 65-16 22-9 45-14 68-14 25 0 49 6 72 13 23 7 45 17 69 15 15 0 29-6 43-13-4 53-33 102-75 133-38 28-86 40-133 34z" horiz-adv-x="1000" />

<glyph glyph-name="olaundrette" unicode="&#xe825;" d="M69-22c24 3 48-9 61-30 13-20 13-48 0-68-10-17-29-28-48-30l-11 0c-33 2-60 32-59 64 0 32 26 61 57 64m-4-10c-26-5-46-31-44-58 2-23 20-45 43-50 20-4 42 4 55 20 12 15 15 37 7 55-9 24-36 38-61 33z m99 1c4 0 7 0 11 0 0-34 0-69 0-104 9 0 17 0 26 0 0-3 0-5 0-8-12 0-24 0-37 0 1 37 0 75 0 112z m80-6c0 7 7 7 12 6 12 0 24 2 35-1 0-37 0-74 0-111-4 0-7 0-11 0 1 15 0 31 1 47-9 0-18 0-27 0 0-16 0-32 0-47-3 0-7 0-10 0 0 35 0 71 0 106m10-2c0-16 0-33 0-49 9 0 18 0 27 0-1 16 0 33 0 49-9 0-18 0-27 0z m82 8c3 0 7 0 10 0 0-34 0-69 0-104 8 0 15 0 23 0 0 35 0 70 0 104 3 0 7 0 10 0 0-35 1-70 0-105 1-5-4-8-8-7-11 0-21-1-32 0-4 2-3 7-3 11 0 33 0 67 0 101z m89 1c2-1 6 0 6-3 9-23 18-47 27-70 1 24 0 48 0 72 4 0 7 0 10 0 0-37 0-75 1-113-3 1-7 0-7 4-9 23-18 46-27 68 0-23 0-47 0-71-4 0-7 0-11 0 1 38 0 75 1 113z m89-1c9 0 18 1 27 0 8 1 16-7 15-15 0-28 0-55 0-83 0-6-6-12-12-14-10-1-20 0-30 0 0 37 0 75 0 112m10-8c0-32 0-64 0-96 7 1 15-2 21 3 1 23 0 46 0 70 0 6 1 13 0 19-5 7-14 3-21 4z m77 8c12 0 24 1 36 0 4 0 8-3 7-8 0-14 1-28 0-43-1-8-10-5-15-5 6-19 11-38 18-56-3 0-6 0-10 0-6 21-13 43-20 64 5 0 11 0 17 0 0 13 0 27 0 40-8 0-15 0-23 0 1-35 0-69 1-104-4 0-8 0-11 0 0 37 0 75 0 112z m87-112c1 37 0 75 0 112 12 0 23 0 34 0 0-2 0-5 0-8-8 0-16 0-23 0 0-14 0-28 0-42 7 0 15 0 22 0 0-2 0-5 0-8-7 0-15 0-22 0 0-15 0-31 0-46 7 0 15 0 23 0 0-3 0-5 0-8-11 0-22 0-34 0z m76 112c15 0 29 0 44 0 0-2 0-5 0-8-6 0-11 0-17 0 0-35 0-70 0-104-3 0-7 0-10 0 0 34 0 69 0 104-6 0-11 0-17 0 0 3 0 6 0 8z m85 0c15 0 30 0 45 0 0-2 0-5 0-8-6 0-12 0-17 0 0-35-1-69 0-104-4 0-7 0-11 0 0 34 0 69 0 104-5 0-11 0-17 0 0 3 0 6 0 8z m88 0c11 0 22 0 33 0 0-2 0-5 0-8-7 0-15 0-23 0 0-14 0-28 0-42 8 0 15 0 23 0-1-2-1-5-1-8-7 0-14 0-22 0 0-15 0-31 0-46 8 0 16 0 23 0 0-3 1-5 1-8-12 0-23 0-34 0 0 37 0 75 0 112z m-870-8c17 3 36-4 47-19 15-19 11-50-8-65-18-16-47-14-64 3-11 12-16 29-12 44 3 18 19 33 37 37m-15-16c-10-7-15-19-16-31 5 2 9 6 15 5 8-1 16-6 25-6 9 0 17 4 26 6 4 1 9-1 13-3-1 11-6 22-14 29-14 11-36 11-49 0z" horiz-adv-x="1000" />

<glyph glyph-name="bleach-bottle" unicode="&#xe826;" d="M387 796c4 4 10 3 15 3 47 0 93 0 139 0 11 1 20-9 26-18 3-5 3-11 3-17-1-25 0-50 0-75 7 1 14 0 21 1 2-4 6-8 8-12 1-11 1-22 0-32-2-7-7-16-15-16-76 0-152 0-229 0-8 0-12 9-14 15-1 11-1 22 0 33 2 4 5 8 8 12 7-1 14 0 21-1 0 27 0 53 0 79-1 12 8 22 17 28z m-89-224c8 16 24 28 42 29 91 0 182 0 273 0 8 1 12-6 16-11 42-57 78-119 106-184 26-62 45-128 52-195 2-15 1-30 2-45-1-15 1-30-2-46-7-72-33-143-75-202-4-6-10-11-12-18-6 1-12 1-18 1-131 0-261 0-391 0-4 0-9-1-13 2-13 10-21 25-27 40-14 31-21 64-29 97-4 21-7 43-10 65-3 12-2 24-2 36 0 17-1 34 0 50 6 39 22 74 39 109 17 39 34 79 37 122 1 32 0 63 1 94 3 19 3 39 11 56m89-178c-11-4-20-15-19-26 0-11 7-21 17-25 16-8 38 8 36 26 0 17-18 29-34 25m88-21c-26-2-45-32-37-57 4-14 17-26 32-31 7-1 14-1 22 0 15 4 27 16 32 30 1 9 1 18 0 27-6 20-28 34-49 31m175-31c-14-2-24-12-30-24-7-15-6-32-5-48 3-27 19-49 24-75 1-17 2-35-3-52-3-17-11-33-15-49-1-12-2-24 3-34 7-18 24-32 44-33 16 2 30 13 39 26 16 24 22 53 27 81 2 10 0 20 2 30 3 17-1 34-1 51-5 36-14 73-38 102-11 14-28 27-47 25m-235-68c-21-4-39-19-46-39-5-9-3-21-3-31 4-24 23-45 47-50 8-1 17-1 26 0 27 5 48 30 49 58 1 24-15 49-37 58-12 6-24 6-36 4z" horiz-adv-x="1000" />

<glyph glyph-name="alegodroid" unicode="&#xe827;" d="M304 834c-2 4 2 8 6 9 11-7 14-21 21-31 7-10 10-22 17-32 12 1 23 7 35 10 11 5 23 5 34 8 10 3 19 4 29 7 13 3 27 1 40 2 14-1 28 1 41-1 15-2 28-8 41-15 10-5 21-3 32-4 12-1 22-9 35-6 7 9 11 21 17 30 7 10 11 22 20 30 4 1 9-2 9-7-2-8-8-15-12-22-7-12-13-24-19-37 10-8 22-13 32-20 15-10 27-23 35-38 20-34 32-71 42-109 3-7 2-16 1-24 1-23 7-46 8-70 2-8-1-16-5-23 3-4 6-9 6-14 0-39-1-78 0-117 0-14-4-27-4-41-1-63 0-127-1-190 0-13 2-27-2-41-3-7-5-15-10-21-7-6-14-11-22-16-16-9-33-18-50-26-8-4-18-6-26-11-3-1-2-5-3-8 0-23 2-45-1-68-2-14 2-28-3-42-5-14-14-28-29-35-16-9-35-10-52-1-10 8-21 17-26 30-4 8-4 16-4 24 1 25 1 50 1 74-26 0-51 0-77 0-2-24 8-48 3-72-4-12-7-25-17-34-11-13-28-20-45-21-24 3-46 17-55 39-8 14-5 31-5 46 0 10-4 20-4 31 0 12 1 25-1 37-7 6-16 8-24 12-27 11-52 26-76 43-12 9-12 27-12 41 1 30-3 60-2 90 0 24-1 48 0 72 0 9 0 18-2 27-1 6-2 12-2 18 0 36 0 71 0 107 0 11-2 23-7 33-1-10-1-21-1-31 0-20-1-40 2-61 1-32-1-65 0-97 1-18 5-36 4-55 1-13-3-25-9-37-9-13-22-24-37-28-8-3-16-5-23-3-15 5-30 11-39 23-10 13-16 28-15 43 0 14 0 28-2 41-1 27 0 54 0 81 0 9-7 16-7 25 1 31 1 62 0 94 0 6 0 13 4 18 7 10 14 21 25 29 14 9 32 13 48 9 13-4 24-11 32-21 8-9 12-19 19-28 1 6 1 13 2 19 1 4 5 7 9 8 8-4 14-10 23-13 18-9 39-8 59-12 26-3 53-6 79-7 13-2 25-2 38-2 14 1 29-2 43-1 22 0 44-1 66 0 17 2 33 1 49 2 24 2 47 2 70 5 16 3 32 2 47 5 17 3 34 6 50 13 5 2 7 7 9 11-12-5-24-10-37-13-24-4-48-8-72-8-109 0-218 0-327 0-9 0-18 2-27 2-19 0-37 8-53 16-7 4-13 6-19 11-2 5-1 10-2 15-2-1-4-2-6-4 0 8 0 16 3 22 4 9 4 18 3 27 2-1 4-2 6-3 10 10 17 22 26 33 15 20 29 39 43 59 3 5 9 7 14 9 16 6 32 12 46 21 6 2 6 8 7 13-13-1-24-9-36-14-8-3-17-5-25-10-6-4-9-10-13-16-11-15-22-30-33-45-11-12-17-28-32-37-5 11-3 23 0 33 4 22 12 42 20 63 5 17 14 32 24 46 17 26 42 45 67 62 4 2 2 6 1 9-9 19-20 37-30 56m301-124c-32-17-67-29-104-31-1-5-4-10-6-14 7 0 15 0 22 1 30 6 60 16 88 30 6 3 13 7 19 4 17-7 32-21 39-39 4-11 15-17 23-25 8-7 15-14 21-22 9-12 17-25 24-39 6-13 13-26 18-40 2-5 6-10 10-13 0 5 1 11-2 15-5 7-10 14-13 22-15 33-30 68-59 92-7 7-18 11-22 22-6 18-21 32-38 40-6 4-14 1-20-3m-132-22c-22-6-44-15-67-18-9-2-19-5-29-5-8 0-19 0-23-8-1-7 7-6 11-7 19-1 38 6 57 9 23 7 47 14 70 21 7 1 7 8 9 14-10 0-19-3-28-6m-152-63c-16-5-21-28-9-40 4-4 12-5 18-2 8 6 11 18 8 29-2 7-9 14-17 13m262-5c-8-3-15-11-14-20 0-13 12-24 25-22 15 3 24 22 15 35-5 9-18 9-26 7z m250-125c10 1 21 1 32 0 21-5 36-22 46-41 3-5 3-10 3-16 0-26 0-52 0-78 0-10 1-20-2-29-5-13-2-26-3-40 0-24 2-48-1-72-2-16 1-32-4-48-3-16-13-30-26-39-13-11-30-16-47-11-20 4-37 19-46 38-4 7-3 15-3 23 1 47 0 94 1 141 2 36 1 71 1 107 2 29 21 57 49 65z" horiz-adv-x="1000" />

<glyph glyph-name="bra" unicode="&#xe828;" d="M104 729c11 6 23 3 35 4 11-1 23 2 33-4 14-7 27-15 38-26 16-17 28-39 34-61 4-13 8-26 7-40 0-84 0-168 0-252 0-7 6-10 10-14 34-22 68-44 104-62 25-15 56-23 76-46 14-18 13-42 13-64 28-1 56-1 84 0 0 12-1 25 2 38 3 11 7 22 15 30 16 15 36 24 56 33 42 21 82 44 120 71 4 4 11 7 10 14 0 79 0 158 0 236 0 11-1 21 1 31 6 32 18 63 41 87 11 11 25 19 39 26 10 5 21 2 32 3 11-1 23 2 33-4 17-8 33-19 44-34 24-29 35-66 35-103 0-77 0-155 0-232 0-18-2-36 3-54 2-14 8-26 7-40 1-48 1-96 0-145 1-13-6-25-11-37-20-52-62-94-114-114-12-4-23-11-36-10-25-1-50-1-75-1-8 1-16 0-24 3-20 6-41 14-60 24-15 8-28 18-41 28-27 20-48 47-63 77-7 13-8 28-14 41-1 3-6 3-9 4-10 0-20 0-31 0-14 0-28 1-42-1-7-20-12-41-24-59-10-17-22-33-37-47-27-25-59-47-95-59-12-4-25-11-38-10-28-1-56-1-84 0-12-1-23 5-34 9-41 16-77 45-100 83-11 16-18 33-25 51-4 9-3 19-3 28 0 42 0 84 0 125 0 8 0 16 1 23 4 16 8 31 9 47 0 90 0 179 0 268 1 41 15 82 44 112 10 9 22 16 34 23m12-37c-22-9-36-30-44-51-4-12-8-24-9-37 1-63 1-126 0-189 1-5 1-10 1-16 10 5 19 13 31 15 18 4 38 2 55-5 23-8 41-26 64-34 2 11 2 21 2 32-1 63 0 126-1 189-3 30-11 61-33 82-10 11-25 18-40 20-9 2-18-3-26-6m710-2c-21-12-35-33-42-56-2-8-3-17-6-25 1 7 2 14 3 20-3-7-5-15-5-23 1-77 0-154 1-231 11 2 20 10 30 16 14 8 29 14 44 19 13 5 28 4 42 4 13-1 24-10 35-14 1 5 1 10 1 15 0 56 0 111 0 167 0 13 1 27-3 40-4 13-8 28-16 40-10 17-26 29-45 34-13 6-27 0-39-6z" horiz-adv-x="1000" />

<glyph glyph-name="cardigan" unicode="&#xe829;" d="M415 785c5 4 9 8 14 13 22-35 43-70 65-105 1-2 3-4 6-3 4-1 6 4 9 7 10 15 18 31 28 46 12 18 22 37 35 54 5-5 10-10 16-14 5-3 10-3 16-5 1-5-1-9-2-13-4-18-12-35-25-48-11-11-24-18-37-23-9-4-19-5-28-7-8-1-14-6-21-10-2-46 0-92-1-137 1-53 0-106 1-159-1-125 0-251-1-377 0-19 1-38 0-57-3 0-5 0-8 0-1 158 0 316 0 473 0 87-1 173 0 260-1 0-3-1-4-1-1-13-1-25-1-38 0-231 0-462 0-693 1-8-8-11-14-14-5-1-14-1-15 6-4 12-4 25-5 38-2 11 0 23-2 34-1 5-2 12-8 14-15 5-32 2-48 1-15-1-30-1-44 0-13 2-25 2-38 5-14 14-21 34-21 54 0 13 0 26 0 40 2 22 4 44 5 66 3 22 0 45 3 67 2 16 1 32 3 48 1 23 2 46 5 68 1 13-3 25-1 37 1 9 3 17 2 26-2 6-8 9-12 14-13 16-22 36-30 55-8 21-16 42-21 64-3 12-11 21-16 32-10 21-19 44-26 66-2 7 1 14 7 18 19 12 42 17 64 23 26 7 52 17 76 31 17 10 34 21 50 31 3-15 7-31 16-44 16-23 40-40 67-44 5-1 10 0 15 0-6 6-15 5-23 8-23 7-43 23-57 44-6 13-12 27-12 42 6 2 13 3 18 7z m194-13c14-6 24-17 38-23 25-15 52-30 80-37 19-4 38-10 56-17 8-4 18-7 23-16 2-6-1-13-3-19-6-18-12-35-20-52-5-13-15-23-18-37-6-23-13-44-22-66-10-24-22-48-42-65 1-15 2-29 4-44 2-16-2-32 0-48 2-14 1-29 3-43 2-14 1-28 2-41 3-21 0-42 3-63 1-9 0-18 1-27 4-41 7-83 0-124-3-9-12-15-21-19-27-4-54-6-81-4-15 3-32 3-46-2-7-3-4-11-5-17-4-24-2-50-10-74-9 2-17 4-25 6-10 2-21 1-31 2 0 244 0 487 0 731 8 4 16 9 25 10 20 2 40 12 56 24 19 17 30 41 33 65m-105-123c3-4 8-9 13-5 4 2 4 8 4 12-6 2-15 1-17-7m-1-114c4-3 7-8 12-7 5 2 6 7 7 11-3 2-6 4-10 3-3-2-6-4-9-7m9-106c-4-1-7-6-7-10 2-3 5-7 10-6 4 2 7 6 6 11-2 2-5 5-9 5m-8-125c3-2 5-4 9-5 3-2 6 2 8 5 2 5-3 9-8 10-5 0-7-6-9-10m8-105c-6 0-11-10-4-13 6-6 16 1 13 9-2 2-6 4-9 4m0-115c-3-1-5-2-7-4-3-8 8-14 14-8 6 3 0 14-7 12m-8-119c2-5 4-11 9-11 4 1 7 3 8 6 1 5-3 9-7 10-4-1-7-3-10-5z m-336 656c4 17 8 36 19 50 10-31 21-63 39-91 6-10 6-22 10-33 7-18 12-37 20-54 10-21 20-42 38-57-3-2-8-3-8-7-3-11-1-23-2-34 0-20-13-37-11-57 0-8 3-17 1-26-2-8-4-15-6-23-4-21-2-42-1-64-4-50-24-97-29-146-4-25-4-50-1-75 1-12 6-24 11-36-36-5-72-2-107 3-6 2-13 3-20 5-3 7 1 14 3 21 9 21 15 43 15 66 0 14 3 27 2 41 0 25 2 51-1 76-1 21 0 42-1 63 1 11-1 23 1 34 8 30 9 61 12 91 1 10 1 19 2 29 2 12 1 24 3 36 2 16-1 32 2 47 3 19-1 38 2 57 3 12 2 25 2 38-1 15 3 31 5 46z m645 50c7-8 10-18 14-27 4-16 7-32 9-47 3-18 0-35 3-53 3-18-1-37 2-56 3-16 0-33 2-49 2-14 1-29 3-43 2-30 5-61 9-92 1-10 4-20 6-30 3-10-1-21 0-31 0-25 0-50 0-75 0-11-3-23-2-35 0-14-1-29 1-44 2-14 0-28 2-43 3-21 12-40 18-61 0-3 2-9-3-10-22-6-46-7-68-9-19 0-37-1-55 2 6 20 11 41 11 62 0 16 1 32-2 49-3 30-13 59-19 89-4 21-11 41-10 62 1 24 2 48-4 71-2 7-5 15-4 23 1 11 3 22-1 32-2 8-4 16-6 24-1 4-5 8-7 12-1 7 1 14 0 21 0 8-3 16-6 23 5 5 11 9 15 15 25 36 38 77 50 119 4 12 12 22 17 33 10 22 18 45 25 68z m-516-644c21-2 43-6 64-6 22-1 44 6 65 1 4-1 7-4 8-8 4-9 2-19 3-29 1-19 3-37 7-55-18-4-36-5-53-5-36-1-72 6-106 17 0 3 0 6 0 9 41 0 82 0 124 0 0 6 0 11 0 17-39 0-78 0-117 0 1 6 3 12 4 18 38 1 75 0 113 0 0 6 0 11 0 17-37 0-74 0-110 0-2 8-2 16-2 24z m342-6c22 0 43 4 65 6 0-8 2-16-2-23-3-1-6-1-8-1-35 0-69 0-103 0 0-6 1-11 1-16 14-2 29-1 43-1 23 0 46 0 69 0 2-6 3-12 5-18-29 0-57 0-86 0-10 0-21 0-31-1 0-5-1-11-1-16 42-1 83 1 125 0 0-3 0-6 0-8-11-4-21-10-32-11-19-2-38-7-57-7-23 0-47-1-70 5 6 28 6 56 9 84 1 7 8 8 13 9 20 3 40-2 60-2z m-517-50c18-4 37-7 56-9 22-2 45-2 67 1-1-10-5-21-13-28-9-1-18 2-27 2-25 3-50 7-75 11 0 8-3 16-8 23z m699-9c20 1 40 5 59 9 0-2 0-4 0-7-3-2-7-4-8-7-1-3-2-7-2-10-32-2-63-9-95-12-2 0-6-1-7 3-4 8-8 17-13 24 22-1 44-3 66 0z m-694-29c14-1 28-3 41-5 20-2 40-6 61-8-2-7-4-13-6-20-20 6-41 6-62 10-12 2-24 4-37 5 1 6 2 12 3 18z m647-13c32 5 65 9 98 14 2-6 4-13 5-20-12 0-23-2-35-4-22-3-44-4-66-10 0 7-1 13-2 20z" horiz-adv-x="1000" />

<glyph glyph-name="dress" unicode="&#xe82a;" d="M596 715c2 2 4 4 5 6 4-3 8-7 11-10 1-7 2-13 7-18-10-5-18-15-30-19 0-5 0-10 0-15-2-3-4-5-5-8 1-2 3-5 3-8-3-18-8-36-10-55-2-6-4-11-7-17-2-5-4-10-6-16-3-9-5-18-7-27l-1-2c0-11-2-23 3-34 5-12 12-24 18-36 4-8 7-15 11-22 6-11 12-22 18-33 8-14 16-29 23-43 6-11 12-22 18-33 2-5 5-10 7-14 2-3 3-6 5-9 16-31 25-65 35-98 1-7 3-14 5-20 6-19 11-38 18-56 4-11 9-22 13-32 4-8 7-15 11-23 2-4 4-8 6-12 3-7 7-14 8-22-5-2-9-3-14-4 0-3 0-7 0-10-2-3-5-7-8-10-9 0-18-1-26-2-9-5-16-12-25-17-10-5-21-1-31-3-14-3-28-6-41-13-5-2-8-6-11-10-5-6-13-9-20-13 0-1-2-1-3-1-3-2-7-3-11-4 0 0 0-1 0-2-5 0-11 0-17 0-16 14-37 20-58 22-15 1-30-2-45-7-9-2-17-9-26-13l0-2c-6 0-12 0-18 0l1 2c-8 2-16 5-23 9-6 4-12 9-16 16-7 4-14 7-21 10-8 2-17 4-25 6-9 1-18 0-26 1-14 3-22 17-36 20-6 1-13 1-20 1-2 2-5 4-7 7-2 4-2 9-4 13-3 2-8 3-11 4 0 6 2 11 4 16 15 31 30 62 40 96 14 42 24 85 40 127 1 1 1 3 1 4 6 12 12 25 19 37 9 17 18 33 27 50 4 8 9 16 13 24 4 7 8 15 12 22 6 11 12 22 17 33 9 16 18 32 24 50 4 18 0 37-6 55-3 10-7 20-12 29-3 19-7 38-10 57-2 6 4 13-2 18 0 6-1 12-2 17-11 4-18 13-28 19 0 1 0 3 0 4 1 0 3 2 4 3 0 3 0 7 1 11 3 3 6 6 10 7 3 2 5-2 7-3 4-1 8-2 11-3 2-5 1-10 1-15 3 0 6 0 9 0 1-3 1-6 1-9 3-1 5-3 8-4 2-7 2-14 3-21 3-2 5-3 8-5 3-1 7-2 11-3 1-1 2-3 4-5 2 0 4 0 7 0 2-3 5-6 7-10 15 0 30-2 43-8 12 8 27 8 40 8 3 4 6 7 9 10 1 0 4 0 6 0 1 2 3 4 5 6 3 0 6 0 9 0 2 3 5 5 8 7 2 5 2 11 2 17 3 3 6 6 9 8 0 2 0 4 0 6 1 1 3 2 3 3 2 0 5 0 7 0 0 5 0 9 0 13 4 2 8 4 13 5m-208-38c4 0 7 0 11-1-1 3-3 5-4 8-3-2-5-5-7-7m187 5c-1-1-3-2-4-3-1-1-1-3-1-4 4 0 7 1 10 1 0 0-1 2-1 3-1 1-2 2-4 3m-186-16c2 0 4 0 6 0 1 1 1 4 2 5-3-2-5-3-8-5m184 3c2-2 5-4 8-4 0 1 0 4 0 6-3-1-5-1-8-2m-189-7c0-2 1-4 2-6 1 0 3-1 4-1 2 2 4 3 5 5-4 1-8 1-11 2m185 0c3-4 7-5 11-7 1 2 2 3 3 5-5 1-10 2-14 2z" horiz-adv-x="1000" />

<glyph glyph-name="hem" unicode="&#xe82b;" d="M438 825c42 0 84 0 126-1 12-15 25-31 38-46 5-7 13-12 14-21 8-29 18-59 27-88 3-11 8-21 8-33-16 4-29 13-43 19-14 7-28 15-43 21-6-17-14-34-21-51-2-19-6-37-5-56 0-213 0-426 0-639-1-22 1-43-1-65-16-2-33-1-49-1-1 236 0 472 0 709-1 9-7 16-11 25-15 25-28 52-43 78-27-13-54-26-81-40-1 1-4 3-5 4 2 9 6 18 8 27 5 17 12 35 16 53 5 15 9 30 15 45 18 18 32 40 50 60m7-54c0-3 0-6 0-9 5-28 8-57 12-86 1-3 1-7 4-9 15-14 30-27 46-41 9 10 17 21 26 31 5 7 12 12 12 21 3 31 9 62 12 93-38 0-75 0-112 0m64-187c-8-3-8-14-1-18 5-4 14 2 14 9 0 6-7 11-13 9m-1-107c-6-3-7-13-1-17 5-4 15 1 15 7 1 7-7 13-14 10m1-106c-6-2-8-11-4-16 5-5 16-3 16 5 2 7-5 13-12 11m0-107c-6-2-8-11-3-16 5-5 16-1 16 7 1 6-7 13-13 9m0-106c-7-3-8-14-1-17 5-4 13 0 14 6 1 7-7 14-13 11m-1-106c-6-4-7-14-1-17 6-5 16 1 15 8 0 7-8 11-14 9z m-52 705c29 2 59 0 89 1 1-4 0-7 0-11-3-21-6-43-9-65 0-4-4-7-6-10-8-10-16-19-24-29-11 10-22 19-32 28-3 3-7 6-8 11-3 25-7 50-10 75z m-114-12c12 3 23 10 36 12-5-17-10-33-16-50-3-17-10-32-14-49-3-9-7-18-8-28 1-1 3-2 4-3 27 13 54 27 82 39 14-26 28-52 43-78 3-7 9-14 10-23 0-231-1-461 0-692 0-3 1-6 2-9-14 0-29 2-44 2-5 0-9 4-15 3-5-1-10 0-14 2-14-1-28 2-41 6-15 4-30 6-43 11-30 10-60 24-83 46-4 4-6 10-6 15 0 31 0 62 0 92 2 23 1 46 1 69 1 8 3 15 2 23 0 86 0 171 0 256-1 14 0 28-1 41-9-4-16-10-24-16-5 9-12 16-18 24-37 43-74 87-112 130-4 5-8 10-13 15 18 17 38 30 57 46 20 17 41 33 61 49 10 8 19 17 31 21 41 16 82 30 123 46z m282 13c8-2 15-5 22-8 43-16 86-31 129-47 7-5 16-6 22-11 45-36 90-72 135-108-45-53-90-106-136-159-2-3-4-7-6-10-9 5-16 12-25 15-2-46 1-93-1-140-1-86 0-172 0-258-1-9 2-17 2-26 0-15 0-31 0-47 0-6 1-12 0-18-3-7-11-11-16-17-8-7-18-11-27-16-13-9-28-14-43-19-10-4-20-7-31-9-18-4-36-9-55-9-7-3-14-1-21-2-8-4-18-3-27-3 8 6 4 17 5 25 0 227 0 455 0 682 0 14 3 28 4 42 7 17 16 34 22 51 25-11 50-24 74-36 4-1 7-2 11-3 1 12-5 22-8 33-8 28-17 55-25 83-2 5-3 10-5 15z m-577-187c5 3 9 9 15 7 6-4 10-11 15-16 40-46 79-92 118-138 3-3 5-7 7-11-10-7-19-13-29-19-6-2-9 5-12 8-39 45-79 90-118 136-4 6-13 10-12 19 4 6 11 9 16 14z m888 0c2 2 4 3 6 4 10-9 21-17 31-26-40-47-82-94-123-142-6-6-11-14-18-19-4-1-7 2-10 4-8 5-15 10-23 15 2 7 8 12 12 18 42 48 84 97 125 146z" horiz-adv-x="1000" />

<glyph glyph-name="hem-long" unicode="&#xe82c;" d="M399 824c8 2 12-7 17-11 21-21 40-43 61-63 10 9 18 19 27 28 10 9 17 22 27 31 7 6 13 17 24 15 8-17 12-34 21-51 2-6 6-12 6-19-1-11-7-21-12-31-7-14-13-30-21-43-1-3-4-6-7-4-14 12-24 26-38 38-1-11-1-21-1-32 0-247 0-493 0-740 0-10 1-19 0-28-17-1-33-1-50-1-1 9-1 18-1 27 1 109 0 219 1 328-1 9-3 18-3 27 0 114 0 228 0 342 0 26 1 51 0 77-11-11-24-20-34-32-3-2-5-7-10-7-4 5-6 11-9 17-7 15-14 29-21 44-3 6-7 12-8 19-1 6 3 11 6 16 8 12 13 26 18 39 2 5 4 10 7 14m71-90c0-4 0-8 0-12 3 0 5 0 8-1 2 4 2 9 2 13-4 0-7 0-10 0m0-90c-1-5-1-11 5-13 5 2 6 8 5 13-4 0-7 0-10 0m0-90c0-4-2-10 3-12 7-1 9 7 6 12-3 2-6 1-9 0m3-87c-6-3-5-16 3-15 7 3 5 15-3 15m0-90c-4-3-4-8-3-13 3 0 6 0 10 0 1 5 0 14-7 13m0-90c-5-2-3-8-3-12 3-1 6-2 9 0 3 5 1 13-6 12m-3-102c3 0 5 0 8-1 3 5 4 13-3 13-7 0-6-7-5-12m0-78c0-3-1-6 0-10 2-2 5-2 8-3 1 4 2 7 2 11-2 4-7 2-10 2z m-46 717c23 2 47 1 70 1 11 0 22 0 33-1-12-12-22-26-35-38-5-5-9-11-15-13-5 1-8 5-11 8-14 15-29 28-42 43z m173-81c5 0 10-1 15-4 30-14 59-29 89-42 16-8 32-16 49-23 13-4 20-16 28-26 6-8 9-18 12-28 5-23 9-47 12-70 7-41 11-82 17-122 6-43 10-86 15-129 2-22 5-44 6-66 1-29 2-59 4-88 1-15 4-30 3-45-1-21 1-42 0-62 1-29 0-57-2-86-1-6-8-7-13-7-19 0-38 0-57 0-5 0-13 0-14 7-5 24-2 48-4 72-6 33-10 67-15 101-6 55-15 109-22 164-3 18-6 37-8 55-7 25-8 52-12 78-2 0-5 0-7 0-4-26-7-51-11-76-4-21-7-41-9-62-4-24-6-48-7-73 2-37 9-74 13-111 1-16 5-32 6-49 4-34 11-67 14-101 0-7 1-14-4-19-8-8-17-14-27-17-12-4-25-1-37-1-39 0-78 0-117 0-1 12-1 23-1 35 0 236 0 472 0 709 0 11 0 22 1 33 12-10 22-22 33-33 3-2 6-4 9-4 3 3 5 7 7 11 8 18 18 36 26 54 4 8 7 16 8 25z m-274-15c10 5 21 12 32 14 2-7 3-14 6-20 11-23 23-45 33-68 3 0 5-1 7-1 11 15 27 24 39 37 0-5 0-10 0-16 0-131 0-261 0-392 0-4 1-9 1-13 3-14 2-29 0-44-1-9 2-18 2-27 0-86 0-171 0-256 0-9 0-18-1-27-55 1-111 0-167 1-10 3-21 10-22 22-1 14 2 27 4 41 10 71 19 141 28 212 2 12 2 25 0 37-1 10-2 20-4 30-1 34-9 66-13 99-5 22-6 46-9 68-2 1-4 1-6 1-3-13-4-26-6-38-3-17-4-33-8-49-4-25-6-50-11-74-2-21-5-41-8-62-3-17-4-34-7-51-5-33-8-66-14-99-2-15-4-30-4-45-1-17 0-34-2-51 0-3 0-9-5-10-7-3-16-2-24-2-15 0-30 0-45 0-4 0-9 1-11 5-2 6-3 13-4 20-2 10 2 20 2 30 0 11-3 21-2 32 1 22 1 44 0 66 1 17 4 34 3 50-1 11 2 22 3 32 0 7-2 13-1 19 1 6 3 12 3 19 1 35 4 70 8 105 9 83 20 165 33 247 3 19 5 38 11 56 5 17 18 33 34 42 17 10 37 17 55 27 23 12 47 22 70 33z m-48-812c56-1 112 0 167-1-9-3-20-2-30-2-42 0-83 0-125 0-4 0-8 1-12 3z" horiz-adv-x="1000" />

<glyph glyph-name="hot-pants" unicode="&#xe82d;" d="M159 691c225 0 450 0 675 0 10 0 21-3 27-11 6-7 7-17 9-25 32-145 65-289 100-433 2-9 4-18 1-27-4-11-15-20-27-20-86-5-171-25-247-64-36-19-70-40-99-68-12-14-30-21-47-26-27-6-54-7-81-4-22 3-46 9-64 24-21 22-46 40-72 56-84 51-182 76-280 82-13 0-25 11-28 24-2 11 3 23 5 34 36 145 68 290 101 436 3 12 15 21 27 22z" horiz-adv-x="1000" />

<glyph glyph-name="hoodie" unicode="&#xe82e;" d="M427 780c5 2 10 7 16 7 20 1 39 0 59 1 10 1 18-7 28-10 34-16 60-47 75-82 7-17 13-35 16-54 5-18 2-37 3-56 0-7-1-15-2-23-3-10-3-21-7-31-2-7-6-14-7-21 8-6 17-8 26-11 16-2 32-10 48-12 17-2 36-2 51-12 13-6 21-17 28-30 29-54 51-113 72-171 5-14 10-29 14-43 5-11 6-23 11-34 3-14 9-27 12-41 6-12 6-26 12-39 2-12 6-23 9-34 1-12 6-23 8-35 2-12 8-24 8-36 1-7 5-12 7-19 1-6 0-13-1-20-19-1-38 0-58-1-13 0-28-5-41-1-4 8-4 16-5 25 0 22-5 44-6 66 0 13-6 26-7 39 0 16-8 31-9 47-10 39-21 79-35 117-6 15-12 29-18 44-3 9-6 18-11 25-1 3-5 4-8 3 0-2 0-5-1-7 1-118 1-236 1-354-1-11 1-22-1-32-3-9-14-10-22-12-13-5-28-8-42-12-13-2-26-6-39-8-9-2-19 0-28-5-3-2-7-3-11-3-59-1-118-1-178 0-8 0-16 6-25 6-18 0-35 7-52 9-19 6-39 10-57 18-8 7-6 19-6 29 0 117 0 235 0 352 0 7 2 15-2 22-9-5-7-16-11-24-10-18-14-39-20-59-1-14-8-26-9-40-1-12-7-22-7-34-1-18-8-36-9-54 0-15-3-29-5-43-4-33-1-65-6-98-2-5-8-5-13-5-24 0-49 0-73 0-4 0-8 0-12 1-2 22-1 44 0 66 8 13 5 29 6 43 0 8 3 15 5 22 2 9 0 19 3 28 2 5 4 10 5 15 1 6 0 12 2 17 2 7 5 13 6 20 1 6 1 13 4 19 5 11 4 23 10 34 5 17 11 35 18 51 4 16 12 31 18 47 5 12 10 23 16 34 13 27 28 53 46 77 8 12 20 18 32 25 17 6 37 7 54 15 13 3 24 9 37 11 4 5 0 11-3 15-4 5-4 12-5 18-1 10-6 19-6 29 0 19 0 38 0 56-1 12 5 22 6 33 1 11 6 21 10 31 9 23 23 44 40 61 11 10 23 21 36 28m39-41c-11-4-22-10-31-17-22-18-33-45-42-71-4-19-9-39-7-59 0-12 3-23 5-35 1-11 7-22 11-32 9-22 23-43 44-55 9-5 18-10 29-10 8 0 17 0 25 3 13 5 24 12 33 22 17 18 28 40 36 63 1 9 2 17 4 25 3 11 3 22 2 33 1 14-3 28-5 43-5 15-11 30-19 43-11 19-26 35-46 43-12 7-26 5-39 4m-15-322c0-79 0-158 0-237 0-7 0-14-1-21-1-3-4-7-6-10 5-7 15-3 21-2 2 6-4 11-3 17 0 84 0 168 0 253-1 3 0 10-5 11-6 1-6-7-6-11m73-28c-2-8-1-16-1-23 0-81 0-162 0-243 1-5-5-8-8-11-1-7 7-6 11-6 4 1 10-2 13 2 3 6-4 9-5 14-1 7 0 14 0 21 0 74 0 148 0 223 0 7 0 15-1 23-1 4-8 4-9 0z" horiz-adv-x="1000" />

<glyph glyph-name="jacket" unicode="&#xe82f;" d="M425 828c5 1 11 1 16 1 25 0 50 0 75 0 15 0 31 1 47-1-3-9-6-18-10-27-12-26-25-52-37-78-2-5-4-12-10-12-9-1-18-1-27 0-5 0-6 5-8 8-10 23-20 45-31 67-5 13-12 26-16 39 0 0 0 2 1 3z m152 1c15-18 29-38 45-56 3-5 7-9 10-14 1-4-1-9-1-14-7-33-11-67-18-101-31 14-61 28-91 42-8 4-18 4-27 5 7 1 13 1 20 3 2 3 4 7 6 10 12 30 27 59 39 88 5 13 11 25 17 37z m-200-40c11 13 21 27 32 39 11-20 19-41 29-62 8-16 14-33 22-50 4-7 6-15 11-22 6-2 12-2 18-3-8-1-17-1-24-5-13-6-26-12-39-18-18-7-35-17-54-23-6 38-12 76-19 115 10 8 16 19 24 29z m263-40c13-1 25-6 38-9 33-9 64-19 96-31 18-8 38-13 52-28 2-6-1-13-2-20-6-31-10-62-15-93-1-8-1-15-1-23-58-1-117 0-175 0-43 0-86-1-130 0 0 44 0 87 1 131 7 0 15 0 22-3 25-11 49-23 74-34 7-3 13-6 20-8 4 18 7 36 10 55 3 21 8 42 10 63z m-414-37c39 13 77 27 117 35 8-39 12-78 21-116 27 10 53 24 80 35 8 4 16 10 25 10 4 0 8 0 12 0-2-13-1-27-1-41 0-30 0-60 0-90-94-1-187 0-281 0-5 0-11-1-17 0-4 4-3 11-4 16-4 30-9 59-14 88-1 8-4 16-4 24 5 11 16 17 26 22 13 6 26 12 40 17z m611-44c10-8 19-18 28-27 11-10 18-23 25-36 5-10 9-20 12-31 12-50 20-102 28-153 16-96 29-191 41-287 6-52 11-103 15-155 0-19 5-38 2-57-44-7-87-17-130-25-1 24-5 48-6 72-5 44-9 87-13 131-3 29-7 58-8 87-2 1-4 2-6 2 0 21-2 42-7 62-2 25 1 51-1 76-6 29-10 58-9 88 0 16-1 32 2 49 1 25 3 49 7 74 4 44 12 87 20 130z m-712-27c7 7 14 14 22 22 3-13 6-26 8-39 9-55 17-109 20-164 0-23 0-45 0-67 1-17-3-33-6-50-1-12 0-25-1-38-3-19-3-40-1-60 1-7-3-13-3-20 0-7 2-14 1-21 0-10-1-20-2-30-1-8-5-15-6-23-6-56-11-112-17-168-2-29-5-57-7-86-44 8-87 18-130 25-4 17 1 34 1 51 7 101 20 202 34 302 12 87 25 174 42 261 4 15 7 30 11 46 7 21 18 42 34 59z m120-108c48 0 96 0 145 0 0-11 1-22-1-33-3-8-10-17-20-17-34 1-69 1-104 0-11-1-18 10-21 19-1 11 0 21 1 31z m259 0c20 0 40 0 60 0 0-11 0-22 0-33 0-9 5-17 5-27 0-41 0-81 0-122 21-5 40-14 60-22 10-3 19-10 29-6 10 3 20 8 29 12 15 5 30 13 46 13 0 35 0 69 0 104 0 10-1 21 2 31 5 16 2 33 3 49 22 1 45 1 68 0-1-18-4-36-5-55 0-13-3-26-3-39 1-22-1-43 3-65 1-16 4-32 7-49 1-20 0-40 0-60-1-14 5-28 5-43 1-13-6-24-5-37 0-17-1-35 1-52 1-8-3-16-3-24-1-10 2-20-1-29-2-8-1-16 0-24 1-12-1-23-3-34-3-24-7-48-14-71-3-1-7-1-10-1-92 0-183 0-274 0-1 155-1 309-1 464 1 40 0 80 1 120z m70 0c51 0 103 0 154 0 0-13 0-27 0-40-9-3-17-11-27-11-33 0-66 0-100 0-6 0-12 4-17 8-2-1-4-1-6-2-7 14-4 30-4 45z m-396-1c19 1 39 1 58 0 0-14-2-28 3-41 4-12 0-25 1-37 0-34-1-68 1-101 20-8 40-15 60-24 7-2 14-6 22-3 17 6 34 14 52 20 6 3 12 5 18 8 1 5 1 9 1 14-1 36 0 73-1 109 0 9 5 18 5 27 0 10 0 19 0 28 26 1 53 1 79 0 1-105 0-211 1-317 0-23 0-47-1-70 1-63 0-125 1-188-1-5 0-11-5-14-8-2-16-1-24-1-80 0-160 0-241 0-3 14-7 28-10 42-6 31-10 62-12 94-3 17-1 35-3 52-1 24 0 49-1 74 0 12 2 24-3 36-3 6-4 12-4 18 0 14-1 28 1 42 3 15 0 29 3 43 3 18 6 36 6 54-1 22 0 44-1 66-2 23-3 47-6 69z m69-53c6-3 12-7 18-7 34 0 68 0 102 0 7-1 13 3 19 6 0-32 0-65 0-97 0-6 0-13-1-19-5-4-12-6-19-9-14-6-29-12-44-17-6-3-13 0-19 3-18 8-37 15-56 22 0 39 0 79 0 118z m464-8c4 3 8 6 12 9 0-7 1-15 1-23-1-32 0-65-1-97-16-7-33-13-49-20-7-3-14-6-22-8-4 0-8 2-12 3-14 6-27 12-41 17-6 2-12 4-17 8-2 6-1 12-1 17 0 34-1 68 0 101 6-3 11-8 18-8 38 1 75 0 112 1z m-207-531c93-1 186 0 279-1-1-23-1-46 0-70-43 0-86 0-129 0-50 0-100 0-150 0-1 24-1 47 0 71z m-294-7c89 0 177 0 265 0 0-22 1-43 0-64-88 0-176 0-265 0 0 21 0 42 0 64z" horiz-adv-x="1000" />

<glyph glyph-name="jacket-o" unicode="&#xe830;" d="M316 724c20 2 40 1 59 1 11 0 22 1 32-1 2-17 0-34 0-52 3-38 9-76 9-115 2-29 6-58 7-88 0-29 5-58 6-88 3-24-1-49 6-72 3-17 11-34 25-44 13-9 29-11 45-10 18 1 34 12 44 27 7 12 12 27 13 41 0 33 6 66 7 99 0 25 2 50 5 75 4 32 3 64 7 97 3 25 5 51 4 76 0 18-1 36 0 54 17 2 34 1 52 1 12 0 24 1 37-1 0-10-12-13-20-16-14-5-30-6-44-10 1-3 3-4 5-4 49 1 98 0 147 1 6 0 12 0 17-4 41-32 73-75 100-120 12-22 25-43 35-67 13-28 23-58 32-88 3-12 8-24 9-36 2-11 6-22 8-34 1-14 7-28 7-43 0-13 6-24 6-37 0-30 1-60 1-90-1-10 0-20-1-30-32-1-63 0-95 0-7 0-15-1-22 0-2 14 0 28-2 41-1 25-6 50-7 75 0 18-6 34-7 51-1 12-6 24-8 36-2 13-9 25-12 39-4 15-11 30-15 45-5 17-14 32-21 48-2 7-5 13-10 19-1-3-2-7-2-11 0-151 0-301 0-451 0-9 1-18-1-27-1-2-4-4-6-5-30-9-61-17-91-24-11-1-22-3-33-6-11-3-23-1-33-5-6-2-13-4-19-3-59-1-119-1-178-1-14 1-28-1-42 4-10 4-21 2-31 5-14 5-29 5-43 10-22 5-43 11-64 19-3 1-8 3-8 8-1 8 0 16 0 25 0 143 0 287 0 431-1 10 1 20-3 29-4-5-7-11-10-18-6-13-12-25-18-38-10-24-17-49-25-73-4-12-6-25-9-37-2-7-3-14-4-21-2-16-7-32-7-49-1-14-3-29-5-43-1-13-1-26-2-39-2-11 0-22-2-34-7-1-14 0-22-1-31 1-63 0-95 1-1 8 0 16-1 24 1 28 0 56 1 85 0 6 2 12 4 18 3 13 1 27 5 41 4 17 5 34 10 51 6 33 17 65 28 96 8 23 16 47 27 69 21 39 44 78 73 112 14 18 31 33 48 48 5 5 12 5 19 5 46-1 93 0 139-1 3 0 5 1 5 4-16 5-34 4-50 11-7 4-14 8-16 15z m154-22c3 3 8 3 12 3 12 0 24 0 36 0 4 0 9 0 12-3 2-4 2-9 2-14 0-23 0-47 0-70 0-6 0-12-3-17-7-2-14-3-20 0-3 0-4 3-4 6-2 20 2 41-2 61-2 0-4 0-6 0-3-16-1-32-1-48-1-6 1-14-3-19-7-3-15-2-21 0-4 4-4 11-4 17 0 22 0 45 0 68 0 5 0 11 2 16z m5-122c11 1 22 0 33 0 6 0 13 1 20-1 4-2 4-8 4-12 0-8 1-18-3-25-9-5-19-3-29-3-10 0-20-2-29 3-4 7-3 15-3 23 0 5 0 14 7 15z m-1-69c10 3 21 1 32 2 8 0 16 1 23-3 4-7 3-16 3-23 0-6 0-15-7-15-14-1-29 0-43 0-4 0-12-1-13 5-2 9-1 17-1 25 1 4 2 8 6 9z m1-64c11 1 22 0 33 0 6 0 13 1 20-1 4-2 4-8 4-12 0-8 1-18-3-25-9-5-19-2-29-3-10 1-20-2-29 3-4 7-3 15-3 23 0 6 0 14 7 15z m0-63c17 1 33 1 50 0 7 0 7-9 7-14 0-8 1-17-3-24-9-5-19-2-29-3-10 1-20-2-29 3-4 7-3 16-3 24 0 5 0 14 7 14z m-1-60c10 3 21 1 32 2 8-1 16 1 23-4 4-6 3-15 3-23 0-5 0-14-7-14-14-1-29-1-43-1-4 0-12 0-13 6-2 8-1 17-1 25 1 3 2 8 6 9z" horiz-adv-x="1000" />

<glyph glyph-name="jeans-female" unicode="&#xe831;" d="M320 776c28 0 56 0 84 0 1-11 1-22 0-33-29-1-58-1-88 0 1 11 2 22 4 33z m100 0c23 0 46 0 69 0 0-11 0-22 0-34-23 0-46 0-69 1 0 11 0 22 0 33z m85 0c7 0 13 0 20-1 1-11 1-22 0-33-6 0-13 0-20 0 0 12 0 23 0 34z m36 0c11 0 22 0 33-1 1-11 0-22 0-32-11-1-22-1-33-1-1 12-1 23 0 34z m49 0c28 0 56 0 84 0 2-11 3-22 4-33-30-1-59-1-88-1-1 12-1 23 0 34z m-276-49c15 1 29 0 44 0-11-18-24-35-36-53-5-9-11-18-17-27 2 27 6 53 9 80z m64 0c37 1 74 0 111 0 0-46 0-92 0-139 0-6 0-12 1-17 6 0 12 0 16 4 8 6 13 14 20 21 4 5 10 9 14 15 2 8 0 16 1 24 0 31-1 62 0 92 23 0 46 0 69 0 4 1 8-3 11-6 20-30 39-60 59-89 6-9 14-18 15-29 2-19 4-39 6-58 2-13 0-27-2-41-17-192-35-385-53-578-45 0-90 0-134 0-1 148 0 296-1 444 0 10 1 21 0 32-3 10-16 13-23 7-5-3-6-9-6-14 1-150 0-299 1-449 0-7-1-13-1-19-21-1-43-1-64-1-23 0-47 0-70 1-18 191-35 382-53 574-1 15-4 31-2 46 2 19 4 37 7 56 1 11 8 20 14 29 21 31 42 63 64 95z m127 0c7 0 13 0 20 0 1-32 0-64 1-96-1-5 1-12-4-16-5-7-12-12-17-18 0 43 0 87 0 130z m131 0c15 1 29 1 44 0 3-27 6-53 9-80-17 27-35 53-53 80z" horiz-adv-x="1000" />

<glyph glyph-name="jeans-male" unicode="&#xe832;" d="M298 776c26 0 51 0 77 0 0-1 1-2 2-2 1-11 0-21 0-32-27 0-54 0-81 0 1 11 0 23 2 34z m94 0c32 0 65 0 97 0 0-11 0-23 0-34-32 0-65 0-97 0 0 11 0 23 0 34z m113 0c7 0 15 0 22 0 1-1 2-2 2-2 1-11 0-21 0-32-8 0-16 0-24 0 0 11 0 23 0 34z m39 0c20 0 39 0 58 0 1-11 0-23 1-34-20 0-39 0-59 0 0 11 0 23 0 34z m74 0c24 0 48 0 72 0 2 0 6 1 7-2 1-11 0-21 1-32-27 0-53 0-80 0 0 11 0 23 0 34z m-322-49c27-1 53 1 79-1-1-9-3-17-7-25-9-20-26-36-47-43-9-4-18-4-28-6 2 13 1 27 2 40-1 12 1 23 1 35z m94-1c4 1 8 1 12 1 29 0 58 0 87 0 0-62 0-124 0-186 0-5 2-10 3-14 3 0 6 0 9 0 14 14 29 29 43 43 1 52 0 105 0 157 20 0 40 1 60-1 0-16 7-31 15-45 7-11 17-21 28-29 17-9 35-16 54-14 1-15 1-31 2-46 1-19 0-39 2-58 1-17 1-34 1-51 3-23 1-46 3-69 1-16 0-32 1-48 2-23 1-46 3-69 1-16 0-32 1-49 2-19 1-39 2-58 2-23 0-46 3-68 1-20 0-40 2-59 1-20 0-39 2-59 0-17 0-35 1-52 1-8 1-17 1-25-8-2-17-1-26-1-56 0-112 0-168 0-9 131-17 261-26 392-5 0-11 0-16 0-9-131-17-261-26-392-56 0-112 0-168 0-9 0-17 0-26 1 0 8 0 16 1 24 2 20 0 41 2 61 1 16 1 33 2 49 2 23 0 46 2 68 1 17 1 33 1 49 3 23 1 46 3 68 1 20 0 40 2 59 1 20 0 41 2 61 1 16 1 32 1 49 2 19 1 39 2 58 3 23 1 46 3 68 1 20 0 40 2 59 0 13 1 25 1 38 19-2 38 5 54 14 11 8 21 18 29 29 8 14 14 29 14 45z m115 1c7 0 14 0 21 0 3 0 4-3 3-6 0-40 0-81 0-121 0-8 1-16-1-23-8-8-18-15-23-26 0 59 0 117 0 176z m114-1c26 2 53 0 79 1 3-25 1-50 3-75-12 2-24 3-35 9-8 3-16 10-23 16-4 5-8 10-12 15-1 2-2 3-3 5-5 9-7 19-9 29z" horiz-adv-x="1000" />

<glyph glyph-name="lingerie" unicode="&#xe833;" d="M679 820c13 1 26 2 37-6 16-10 26-28 31-45 4-9 4-19 4-28 0-52 0-105 0-157 0-9 2-17 5-26 2-8 2-17 2-26 0-21 0-41 0-61 0-9 0-19-4-28-6-18-17-35-30-49-8-7-17-12-25-19-2-2-5-4-5-7 1-8 4-16 7-23 9-24 15-48 22-73 6-16 6-33 11-49 3-13 2-26 5-40 8-35 5-71 6-106 0-24-1-49-6-72-2-12-2-24-5-35-4-20-8-40-15-60-4-11-6-22-13-32-2-3-7-4-10-4-124 0-247 0-370 0-4 0-9 1-11 5-8 11-11 23-17 35-11 25-18 52-25 79-3 19-9 38-10 58 0 17-6 33-6 49 0 31 0 61 0 92 0 11 3 22 5 32 1 11 1 21 2 31 1 11 5 22 7 32 4 30 13 59 21 89-23 15-43 36-53 63-5 10-4 21-5 32 1 29 0 57 1 86 0 13 5 26 5 39 0 49 0 98 0 147-1 17 6 33 14 48 8 13 20 25 35 29 13 1 28 2 40-6 24-16 34-46 36-73 0-45 0-90-1-135 1-6 1-12 4-17 5-5 11-9 16-13 13-8 25-16 38-23 12-7 26-13 38-23 5-4 11-10 18-11 9 0 17 0 26 0 6 0 12 0 17 2 5 3 9 8 14 11 9 7 19 12 29 18 17 9 34 20 50 30 4 3 8 6 11 10 3 4 3 9 3 14-1 44 0 88 0 133-1 17 4 34 11 49 8 17 22 31 40 34m-402-38c-11-14-13-32-14-49-1-35 0-69 0-104 11 4 24 9 36 6 16-3 29-14 42-23 3 18 2 35 2 53 0 22 0 45 0 68 0 16-5 31-12 45-6 10-16 18-28 19-11 0-20-7-26-15m386-1c-9-15-14-31-14-48 0-31 1-63 0-94 0-9 1-18 2-27 16 12 33 24 54 23 9-1 17-4 25-8 3 22 1 45 1 67 1 24 1 50-7 73-5 12-14 25-27 29-13 3-27-4-34-15z" horiz-adv-x="1000" />

<glyph glyph-name="polo-shirts" unicode="&#xe834;" d="M440 753c29 4 58 7 88 4 25-2 51-6 75-15 15-6 31-14 38-30 41 0 82 0 123 0 23-1 43-16 59-31 30-29 54-64 76-100 16-26 32-52 48-77 4-7-2-15-9-18-58-28-116-57-175-84 0-144 0-289 0-433 1-13-9-27-23-27-160 0-320 0-481 0-13 0-22 14-22 27 0 144 0 289 1 433-34 14-66 31-99 47-23 11-47 22-70 34-6 3-13 4-16 11-2 3-2 7 1 10 20 34 41 68 63 102 16 25 34 49 55 70 18 17 38 35 64 36 41 0 82 0 123 0 3 7 8 14 15 18 19 14 43 19 66 23m-51-44c-6-4-4-13-10-18 1-3 2-7 4-11 18-35 34-72 52-108 11 6 22 12 34 18-16 44-32 88-52 131-10-4-19-7-28-12m143-119c11-7 22-12 33-18 20 39 37 79 57 118-4 5-6 11-8 16-9 8-20 11-30 14-21-42-36-86-52-130m-50-10c0-48 0-96 0-144 12 0 24 0 36 0 0 48 0 96 0 144-12-1-24-1-36 0m126-92c-6-1-10-7-10-13 0-35 0-70 0-106 0-7 6-13 13-13 26 0 51 1 77 0 5 1 11 0 15 4 4 3 4 9 4 14 0 32 0 65 0 97 0 5 0 12-5 15-4 3-10 2-14 2-27 0-53 1-80 0z m-113 76c4 4 10 1 13-3 5-7-5-16-12-12-6 3-7 11-1 15z m2-33c7 3 14-4 11-11-2-7-12-8-15-2-4 5-1 11 4 13z m-3-36c4 4 12 3 14-2 4-6-3-15-10-13-4 1-5 4-7 7 1 3 1 6 3 8z m118-20c27-1 54-1 81 0 0-10 0-19 0-28-27-1-54-1-81 0 0 9 0 18 0 28z m0-39c27 0 54 0 81 0 0-22 0-44 0-65-27 0-54 0-81 0 0 21 0 43 0 65z" horiz-adv-x="1000" />

<glyph glyph-name="bikini" unicode="&#xe835;" d="M93 636c10 3 21-5 21-15 0-49 0-98 0-147 33-8 63-23 92-39 63-36 120-81 170-132 25-26 47-52 66-81 17-26 31-55 39-85 12 0 24 0 36 0 15 56 50 105 88 148 33 37 71 70 112 101 37 27 76 52 119 71 14 7 29 13 45 17 0 48 0 97 0 146 0 6 4 13 10 15 9 5 22-3 22-14 0-49 0-99 0-149 7-5 13-12 15-20 11-38 16-77 20-115 5-56 6-111 2-167-1-18-3-36-7-54-4-14-17-22-29-28-31-16-67-21-102-23-54-4-109-1-163 6-37 4-74 11-110 19-8 2-15 8-20 15-13 0-27 0-40 0-5-7-12-13-20-15-75-17-152-26-228-27-38 0-77 2-113 12-19 5-37 12-52 25-7 5-11 13-12 21-8 46-9 93-8 139 2 64 7 128 23 189 2 9 6 16 13 21 0 50 0 100 0 150 0 7 4 14 11 16z" horiz-adv-x="1000" />

<glyph glyph-name="blazer-female" unicode="&#xe836;" d="M419 706c13 7 17 23 27 33-2-28 5-55 9-82 9-41 18-81 28-121 5-25 12-49 18-73 3-16 8-33 8-50-3 9-7 17-12 25-1 4-3 8-5 11-2 4-4 8-6 12-2 4-4 8-6 12-1 4-3 8-6 12-4 8-8 17-12 25-4 8-7 17-11 25-4 10-9 19-12 28 0 1-1 3-1 4-6 13-10 26-17 39-4 11-11 22-16 33 8 8 17 15 24 24-8 2-16 5-23 9-2 13 4 25 13 34z m161 34c0-1 1-4 1-5l2 1c6-11 11-22 22-29 12-7 17-22 15-35-3-2-6-3-9-4-1-1-3-1-4-1-3-2-6-3-9-4 6-9 15-15 22-23 1-3-1-6-2-9-5-7-9-15-12-23-3-5-4-11-7-16-4-9-8-19-12-29-2-9-7-17-10-26-4-8-8-17-12-25-4-7-7-14-10-21-1-2-2-4-3-6-1-3-3-7-5-10-2-4-4-8-5-12-6-11-10-21-16-31-2-4-4-8-5-12-2 5-4 10-2 16 2 10 4 21 7 31 1 8 3 16 5 24 2 7 4 15 6 23 3 11 6 22 8 34 4 12 6 26 10 38 1 7 2 13 3 19l1 1c3 11 4 22 8 33 1 10 3 20 6 29 1 11 3 21 4 32 3 13 2 26 3 40z m-189-47c2 2 5 2 8 3-5-9-4-19-3-28 3-5 8-9 14-9-4-5-9-9-14-14-3-12 6-23 11-33 1-3 3-7 5-10 0-2 1-4 2-6 4-10 9-19 12-29 10-26 22-51 34-76 1-3 3-7 4-10 3-5 5-9 7-14 8-18 17-35 27-53 6-11 15-21 17-35 2-10 4-20 4-31 1-17 4-34 4-51 0-2 0-5 1-8 1-32 1-65 0-97-2-26-4-53-6-79-4-20-11-41-27-55-8-8-18-13-28-17-7-2-13-4-19-6-14-1-28-3-42-3-22 1-44 2-65 8 0 14-1 27 0 40 0 8 2 16 3 25 0-3 0-6 1-10-1 7-1 14 1 20 8 35 12 70 19 104 3 16 7 31 8 47 3 14 2 29 5 43 0 18 5 36 4 55-1 13 2 26-2 38-2 8-4 15-7 22-1 2-1 4-1 6-5 12-5 26-11 37-2 4-7 7-11 4-7-4-9-12-9-19-2-7-3-14-2-21 0 3-1 5-1 8-1-15-4-31-3-46-3-23-2-46-2-68 0-11 3-21 2-32 1-28 0-57 0-85-2-14-2-27-2-41-2-13-2-27-3-41-1-18-1-36-1-53-2-13-3-27-2-40 1-1 3-2 4-3 0-8 3-16 5-24 2-5 2-10 1-16-3-4-8-5-12-8-13-4-26-8-40-6-5 2-10 3-15 5-1 0-3 1-4 1-1 1-4 2-5 3-1 86-1 173 0 260 0 6-1 13 1 19 1 18 1 37 2 55 1 12 0 25 2 38 1 15 0 31 2 46 1 24 4 48 5 72 4 24 5 48 9 72 2 17 3 34 8 51 0 13 5 26 7 39 2 7 4 14 5 21 2 2 5 5 8 7 6 1 12 3 19 5 9 5 19 11 31 14 7 2 14 5 21 6 4 1 9 2 14 3m90-342c-7-5-7-17 1-21 7-7 21 0 20 10 1 11-13 17-21 11m3-78c-9-4-11-16-3-22 7-8 21-1 21 9 1 9-10 17-18 13m-6-90c-4-5-1-12 2-17 3-1 5-2 8-3 8 1 16 7 14 15-1 12-19 16-24 5z m150 512c2 0 4-1 7-2 21-5 43-9 61-21 7-4 16-5 23-7 6-3 9-8 10-14 4-19 9-39 12-59 1-14 5-28 6-43 2-19 6-39 7-59 2-14 2-28 4-42 1-20 3-39 3-59 2-11 1-23 3-34 1-17 0-35 2-52 0-14 1-29 1-43 2-28 1-56 1-84 2-52 0-104 0-156-1-12-1-24-1-36-1 0-4-1-5-2-12-5-24-8-37-5-11 2-22 5-32 11-1 2-1 4-2 6 0 11 5 20 6 30 1 3 1 8 5 9 1 13 0 27-2 40 0 15 0 30 0 45-3 12 0 25-3 37-1 11-1 22-1 33-3 37-2 74-2 111 4 26 2 51 2 76 0 4 0 7-1 10 0 21-3 42-5 63-2 6-3 13-6 20-3 3-6 4-11 5-7-6-9-15-11-23 0-4-1-7-2-10 0-3-1-5-1-8-4-10-6-20-10-30-2-7-2-14-1-21 0-11 0-23 0-35 1-21 6-41 6-62 3-30 9-59 14-88 5-25 8-51 14-75 2-13 5-26 6-38 1-14 1-28 1-43-17-5-34-6-50-7-33-2-68-1-96 18-10 6-18 16-24 25 0 2 1 5 2 7 8 19 8 41 11 62 0 20 3 40 2 61 2 20 2 40 0 60 1 20-2 40-2 61-3 25-5 51-9 76 0 2 1 5 3 7 6 9 11 20 16 31 9 17 18 34 26 52 9 20 19 41 28 62 4 10 7 20 12 29 3 10 8 20 12 30 5 7 8 14 11 21 1 3 1 6 1 9-5 4-9 9-14 12 0 1 0 3 0 4 3 0 6 1 9 2 6 10 6 23 1 33z m-155-662c15 8 30 18 39 34 17-26 48-40 78-44 23-3 47-2 71 1 8 1 17 4 26 3-1-14-12-30-3-44 2-7-6-13-12-16-20-11-43-14-66-16-18-1-37-1-55 1-25 0-50 1-74-1-13 0-25 0-38 0-15 2-31 0-46 3-6 1-11 1-17 1 2 0 4 0 6 1-15 1-32 2-43 13 0 4 0 8 0 13 8 6 6 18 3 27-2 6-1 12-1 18 6 0 12-1 18-2 33-5 66-6 97 3 4 1 9 3 13 4 1 1 3 1 4 1z" horiz-adv-x="1000" />

<glyph glyph-name="blouse" unicode="&#xe837;" d="M403 766c6 0 12 0 17 0 0-13-3-26-5-39-1-11 4-21 11-29 15-17 25-38 33-59 5-23 13-45 20-67 1 0 3-1 3-1 19 38 37 77 63 112 3 5 9 9 15 14 6 6 9 15 9 24 1 14 1 28 1 43 9-1 19-2 26-9 8-7 10-18 13-28 2-8 4-17 3-25-3-4-8-4-12-5 0-1 0-3 0-3 10-2 21-2 30-6 20-9 40-15 59-22 18-5 35-12 54-13 6-1 12-4 16-8 10-10 19-20 22-33 14-31 32-61 44-94 5-15 12-30 13-46-1 0-3 0-5 0 1-6-1-12-6-16 2-12 11-21 15-31 0-4-5-6-8-9-29-19-60-35-90-52-15 9-23 26-39 32-7-6-7-15-9-23-3-21-10-42-22-60-7-11-17-19-26-27 0-23-1-46 2-69 0-6 4-10 4-15 2-11 0-22 3-32 3-16 10-31 15-46 9-23 9-49 17-73 2-7 11-9 14-15 4-9 4-19 8-28 4-8 1-18-4-25-8-11-21-18-33-23-6-3-13 0-18-4-5-4-11-7-18-6-8-5-19-7-29-7-8-1-12 7-17 12-13-9-28-16-45-17-1 0-2-1-3-2-17 0-34 0-51 0-3 3-7 4-10 5-16 0-32-3-47 2-26 2-53-3-79 4-11-5-23-1-34 2-8 2-18 5-22 13-5 2-12 4-16 8-3 6-6 12-11 16 0 2 0 4 0 6 1 1 3 2 4 2 1 6 1 11 2 16 1 10 6 18 7 27 3 13 4 27 9 39 9 24 21 47 30 71 2 7 6 14 8 21 4 29 5 59 6 88 1 7-4 13-5 20-1 8-1 16-2 23-2 6-6 9-9 14-8 9-13 20-19 30-8 18-17 36-20 56-5 0-7-5-10-8-4-5-9-10-15-13-8 5-15 12-24 17-15 9-30 16-45 25-8 5-16 10-20 19 0 8 4 15 4 22-3 4-7 7-9 12-4 5-4 12-8 17 0 6 0 11 0 17 4 4 4 9 6 14 14 36 35 70 54 104 4 11 14 18 22 25 9 9 22 9 33 14 12 2 21 8 33 10 0 1 1 3 2 3 8 3 18 1 25 7 6 4 14 0 20 4 10 6 22 6 33 9-4 7-12 6-18 11-2 7 2 15 5 21 5 10 10 21 17 30 3 4 9 4 13 7z" horiz-adv-x="1000" />

<glyph glyph-name="shorts" unicode="&#xe838;" d="M125 756c1 0 4 0 6 0 237 0 475 0 713 0 8 0 16 1 24 0 1-19 0-38 0-56 0-16 1-32 0-47 0-4-5-5-9-5-242 0-484 0-726 0-4 0-8 1-9 5 0 12 0 25 0 37 1 22-1 44 1 66z m0-160c1 3 5 3 8 3 237 0 474 0 711 0 7 0 14 0 21-1 3-2 3-7 4-10 5-21 4-42 7-62 0-8-1-15 0-23 5-16 5-32 6-48 3-11 1-23 2-34 4-16 5-33 6-50 3-11 0-23 2-34 6-19 4-39 7-59 1-11-1-23 3-34 2-13 3-25 4-38 2-11 0-23 2-35 4-16 4-33 6-50 3-13-1-27 3-40 4-18 3-37 6-55-1-12 0-24 2-35 0-6 5-11 5-18-1-12 0-25 0-37-105 0-210 0-315 0-20 0-40-1-60 1-1 4-1 9-2 14 0 16-2 31-5 47-2 22-2 45-5 67-3 19-5 39-5 58-1 18-4 35-6 52-2 17-2 34-4 51-1 10-4 20-4 30-2 19-1 38-4 57-3 19-5 38-6 57 0 25-6 50-7 75-1 30-7 59-8 88 0 7 1 14-3 19-4-5-2-12-3-19-1-29-7-58-8-88 0-26-7-51-7-77-1-20-3-39-6-59-4-24-1-49-6-73-3-13-4-26-4-39-1-28-7-54-8-81 0-24-4-47-7-71-1-15-1-31-3-47-2-14-4-27-5-41 0-7 0-14-2-20-5-1-10-1-15-1-120 0-240 0-359 0-1 12 0 25 0 37-1 6 4 11 4 16 1 9 3 18 3 27-1 13 2 25 2 37 1 11 1 21 4 31 3 12 0 25 2 37 2 15 2 29 5 44 3 10 2 20 2 31 3 16 2 33 6 50 4 12 0 25 3 37 2 9 0 18 2 27 1 8 1 15 3 23 3 10 1 20 2 31 3 18 2 37 7 56 2 11-1 23 2 35 1 16 1 32 6 48 1 10-1 20 1 30 2 10 1 20 3 29 1 11 2 23 5 34z" horiz-adv-x="1000" />

<glyph glyph-name="singlet" unicode="&#xe839;" d="M301 764c18 1 36 0 55 0 10 0 20 1 30 0 1-11 1-22-1-33-1-12 0-25 0-37 0-12-2-24 1-36 1-7 0-13 2-20 4-11 1-24 8-34 3-4 4-10 6-14 5-5 12-10 20-10 45 0 90 0 135 0 14 0 26 12 30 25 6 9 6 20 7 30 0 8 5 16 4 24-1 18 1 36-3 54 0 17-3 33-3 51 28 1 56 0 84 0 0-1 0-3 1-4 0-60-1-121 0-181 1-5 3-10 4-15 3-5 6-11 8-17 9-15 20-28 33-39 8-7 17-15 27-18 1-3 1-7 1-11 0-184 0-367 0-551-169 0-338 0-508 0 0 181 0 362 0 543 0 7 0 13 1 19 3 1 5 2 7 4 8 9 17 16 24 26 5 5 8 12 13 18 3 8 8 16 10 25 1 6 4 13 4 19 0 61 0 121 0 182z" horiz-adv-x="1000" />

<glyph glyph-name="short-pants" unicode="&#xe83a;" d="M153 669c3 14 17 24 31 23 210 0 420 0 631 0 13 1 27-9 30-23 41-182 83-364 125-545 1-8 4-16 2-24-2-11-12-20-23-22-123-22-246-44-369-65-10-2-22-5-32 1-9 5-13 15-16 25-4 11-9 23-13 35-13 1-27 1-40 0-6-15-11-31-17-46-4-13-19-20-32-17-127 22-254 45-381 67-15 3-27 19-23 34 42 186 85 371 127 557z" horiz-adv-x="1000" />

</font>
</defs>
</svg>
